<svg id="svg" version="1.1" xmlns="http://www.w3.org/2000/svg" xmlns:xlink="http://www.w3.org/1999/xlink" width="400" height="300" viewBox="0, 0, 400,300"><g id="svgg"><path id="path0" d="M275.319 102.101 C 274.494 102.416,272.690 102.902,271.311 103.180 L 268.804 103.686 268.104 106.455 C 266.011 114.732,263.046 115.662,252.904 111.219 L 251.795 110.733 250.746 114.106 C 247.864 123.376,248.023 123.812,254.878 125.440 C 257.726 126.116,260.867 127.230,260.622 127.475 C 260.209 127.888,263.837 128.775,266.317 128.866 C 267.802 128.921,269.601 129.181,270.315 129.444 C 272.932 130.407,277.911 130.984,282.574 130.865 C 283.792 130.834,283.851 130.784,284.674 129.107 C 286.075 126.254,285.863 124.036,283.599 117.858 C 283.252 116.911,282.711 114.818,282.397 113.207 C 281.693 109.599,280.614 106.575,280.240 107.166 C 280.060 107.450,279.978 107.288,279.975 106.645 C 279.971 105.928,277.565 101.997,276.858 101.551 C 276.836 101.538,276.144 101.785,275.319 102.101 M233.923 166.836 C 232.264 167.739,230.267 168.535,228.704 168.917 C 226.358 169.490,223.556 170.779,223.556 171.284 C 223.556 171.404,224.940 171.796,226.632 172.157 C 236.924 174.353,240.119 174.985,240.252 174.852 C 240.567 174.537,242.507 167.097,242.369 166.736 C 242.244 166.409,240.480 165.967,237.438 165.501 C 236.851 165.411,235.826 165.800,233.923 166.836 M81.396 173.518 C 81.233 173.725,80.934 174.597,80.733 175.456 C 79.531 180.585,73.952 183.427,69.234 181.314 L 67.801 180.672 66.869 181.934 C 64.473 185.177,62.967 189.865,62.936 194.173 C 62.914 197.228,63.017 197.448,64.459 197.452 C 69.530 197.466,73.544 204.770,71.023 209.399 C 70.346 210.642,70.504 210.861,73.260 212.499 C 76.556 214.457,79.356 215.223,83.378 215.267 L 86.787 215.304 87.301 213.273 C 88.658 207.917,94.374 205.114,99.126 207.474 L 100.278 208.045 100.980 207.174 C 104.953 202.236,106.969 191.153,103.895 191.145 C 98.642 191.131,94.742 184.506,97.058 179.530 L 97.787 177.966 95.774 176.628 C 91.595 173.849,82.666 171.918,81.396 173.518 M208.397 206.902 C 208.397 225.551,208.433 233.137,208.477 223.758 C 208.521 214.379,208.521 199.120,208.477 189.849 C 208.433 180.579,208.397 188.252,208.397 206.902 M206.521 175.844 C 206.521 176.422,206.583 176.658,206.658 176.369 C 206.734 176.080,206.734 175.608,206.658 175.319 C 206.583 175.030,206.521 175.266,206.521 175.844 M239.464 178.594 C 239.456 179.476,235.919 182.337,232.826 183.963 C 231.180 184.828,229.265 186.051,228.570 186.679 L 227.307 187.822 238.635 187.835 C 244.865 187.841,249.962 187.789,249.962 187.718 C 249.962 187.646,249.337 185.925,248.572 183.892 C 247.807 181.859,247.166 179.857,247.147 179.445 L 247.112 178.695 243.540 178.788 C 240.839 178.859,239.907 178.786,239.719 178.488 C 239.528 178.188,239.468 178.213,239.464 178.594 M204.880 178.757 C 205.253 178.829,205.793 178.826,206.080 178.751 C 206.367 178.676,206.062 178.617,205.401 178.620 C 204.741 178.624,204.506 178.685,204.880 178.757 M206.521 180.045 C 206.521 180.623,206.583 180.859,206.658 180.570 C 206.734 180.281,206.734 179.809,206.658 179.520 C 206.583 179.231,206.521 179.467,206.521 180.045 M206.521 184.246 C 206.521 184.824,206.583 185.060,206.658 184.771 C 206.734 184.482,206.734 184.010,206.658 183.721 C 206.583 183.432,206.521 183.668,206.521 184.246 M87.161 186.539 C 92.136 188.234,93.989 195.024,90.673 199.410 C 85.827 205.822,75.651 202.354,75.625 194.282 C 75.607 188.305,81.242 184.523,87.161 186.539 M206.527 188.297 C 206.531 188.957,206.592 189.192,206.664 188.819 C 206.736 188.445,206.733 187.905,206.658 187.618 C 206.583 187.332,206.524 187.637,206.527 188.297 M206.521 192.648 C 206.521 193.226,206.583 193.462,206.658 193.173 C 206.734 192.884,206.734 192.412,206.658 192.123 C 206.583 191.834,206.521 192.071,206.521 192.648 M172.546 195.070 C 171.476 195.577,169.619 196.399,168.420 196.898 C 167.222 197.397,166.242 197.987,166.242 198.208 C 166.242 198.572,167.744 205.001,168.224 206.693 C 168.343 207.111,169.924 208.516,172.207 210.233 C 174.290 211.799,176.804 213.861,177.794 214.814 C 180.485 217.403,182.435 218.394,182.450 217.179 C 182.461 216.323,175.110 194.149,174.815 194.149 C 174.638 194.149,173.617 194.564,172.546 195.070 M322.056 196.756 C 322.344 196.831,322.817 196.831,323.106 196.756 C 323.395 196.681,323.158 196.619,322.581 196.619 C 322.003 196.619,321.767 196.681,322.056 196.756 M203.301 197.354 C 203.631 197.444,204.013 197.672,204.149 197.859 C 204.313 198.084,204.356 198.047,204.275 197.749 C 204.209 197.502,203.827 197.274,203.427 197.244 C 202.854 197.200,202.828 197.223,203.301 197.354 M204.240 200.087 C 204.159 200.218,204.556 200.271,205.122 200.205 C 205.688 200.138,206.152 200.032,206.152 199.967 C 206.152 199.741,204.385 199.852,204.240 200.087 M204.315 202.334 C 204.460 202.479,204.966 202.549,205.440 202.490 C 206.233 202.391,206.212 202.370,205.177 202.227 C 204.531 202.138,204.164 202.183,204.315 202.334 M202.372 207.652 C 202.401 209.324,203.236 210.087,204.095 209.228 C 204.262 209.062,204.018 209.005,203.477 209.084 C 202.593 209.214,202.583 209.199,202.464 207.608 L 202.343 206.002 202.372 207.652 M202.285 211.760 C 202.266 212.617,202.354 213.382,202.481 213.460 C 202.608 213.539,202.668 213.040,202.615 212.353 C 202.460 210.334,202.323 210.088,202.285 211.760 M186.526 215.424 C 184.855 217.121,184.848 217.018,186.739 218.745 L 188.182 220.063 189.668 218.577 L 191.155 217.090 189.565 215.521 L 187.976 213.952 186.526 215.424 M202.340 216.054 C 202.340 216.962,202.397 217.333,202.465 216.879 C 202.534 216.425,202.534 215.683,202.465 215.229 C 202.397 214.775,202.340 215.146,202.340 216.054 M204.251 217.154 C 204.141 217.264,204.053 217.501,204.056 217.679 C 204.059 217.891,204.138 217.882,204.283 217.654 C 204.406 217.461,204.978 217.246,205.554 217.177 L 206.602 217.050 205.526 217.002 C 204.935 216.976,204.361 217.044,204.251 217.154 M205.026 219.262 C 205.315 219.337,205.788 219.337,206.077 219.262 C 206.365 219.186,206.129 219.124,205.551 219.124 C 204.974 219.124,204.737 219.186,205.026 219.262 M204.880 223.768 C 205.253 223.840,205.793 223.837,206.080 223.762 C 206.367 223.687,206.062 223.628,205.401 223.632 C 204.741 223.635,204.506 223.696,204.880 223.768 M204.880 227.969 C 205.253 228.041,205.793 228.038,206.080 227.963 C 206.367 227.888,206.062 227.829,205.401 227.833 C 204.741 227.836,204.506 227.897,204.880 227.969 M204.244 229.788 C 204.166 229.915,204.630 229.968,205.277 229.906 C 205.923 229.845,206.452 229.741,206.452 229.676 C 206.452 229.452,204.387 229.557,204.244 229.788 M204.126 241.181 C 204.910 241.243,206.193 241.243,206.977 241.181 C 207.761 241.119,207.119 241.068,205.551 241.068 C 203.983 241.068,203.342 241.119,204.126 241.181 M134.734 250.714 L 134.734 253.566 171.418 253.490 L 208.102 253.413 208.189 250.938 L 208.276 248.462 188.609 248.462 C 175.698 248.462,168.942 248.359,168.942 248.162 C 168.942 247.966,163.041 247.862,151.838 247.862 L 134.734 247.862 134.734 250.714 M126.482 254.977 C 124.666 256.053,122.600 257.248,121.890 257.633 C 120.488 258.394,119.966 259.206,117.853 263.916 C 117.186 265.401,116.317 267.006,115.920 267.482 C 114.316 269.410,113.604 271.912,114.211 273.494 C 114.476 274.186,114.749 274.105,116.970 272.673 C 118.075 271.960,119.587 271.069,120.330 270.692 C 121.073 270.315,121.922 269.750,122.217 269.437 C 122.512 269.124,122.861 268.867,122.991 268.867 C 123.318 268.867,127.762 266.320,128.381 265.778 C 128.657 265.536,129.355 265.104,129.932 264.816 C 131.251 264.160,136.234 261.032,136.234 260.860 C 136.234 260.547,133.823 257.243,133.117 256.587 C 132.686 256.187,132.333 255.734,132.333 255.580 C 132.333 255.110,130.505 252.961,130.132 252.992 C 129.940 253.008,128.297 253.901,126.482 254.977 " stroke="none" fill="#3c84ef" fill-rule="evenodd"></path><path id="path1" d="M241.035 101.961 C 238.735 102.536,238.733 102.614,240.942 105.381 C 242.861 107.785,243.428 108.165,245.576 108.487 C 246.342 108.602,247.309 108.964,247.726 109.292 C 248.475 109.881,249.962 109.853,249.962 109.249 C 249.962 109.102,249.119 107.916,248.087 106.614 C 247.056 105.311,245.739 103.615,245.161 102.845 C 243.994 101.287,243.853 101.257,241.035 101.961 M255.364 128.861 C 242.493 131.740,243.099 130.793,238.834 154.689 C 238.333 157.494,237.707 160.701,237.442 161.815 L 236.961 163.841 235.360 163.841 L 233.758 163.841 233.758 165.341 C 233.758 167.082,233.751 167.079,235.453 166.081 L 236.751 165.321 239.490 165.846 C 242.801 166.481,242.734 166.335,241.596 170.411 C 240.690 173.654,239.761 177.736,239.760 178.470 C 239.760 178.749,240.695 178.845,243.434 178.845 L 247.107 178.845 249.210 176.663 C 251.838 173.936,253.130 171.566,253.584 168.641 C 253.877 166.753,254.154 166.100,255.497 164.140 C 257.201 161.651,258.693 157.584,259.264 153.871 C 259.948 149.423,262.415 146.935,269.743 143.304 C 275.768 140.319,280.542 135.431,280.927 131.855 L 281.020 130.983 278.170 130.800 C 274.891 130.590,272.124 130.111,270.293 129.436 C 269.590 129.177,267.797 128.926,266.300 128.878 C 264.686 128.825,263.117 128.595,262.437 128.310 C 260.931 127.681,260.482 127.716,255.364 128.861 M118.706 132.068 C 115.336 132.859,113.058 136.160,113.517 139.587 C 113.713 141.048,114.697 142.163,117.104 143.653 C 119.212 144.958,119.228 145.101,117.315 145.512 C 115.085 145.990,112.734 145.903,109.527 145.223 C 101.953 143.616,97.982 144.012,93.789 146.789 C 92.056 147.936,92.066 148.072,94.186 152.566 C 96.059 156.537,96.766 157.449,99.826 159.839 C 101.194 160.907,102.599 162.182,102.948 162.673 L 103.583 163.564 105.580 162.471 C 111.517 159.219,114.211 156.456,117.914 149.823 C 120.898 144.479,121.142 143.110,119.196 142.650 C 116.454 142.002,116.424 139.607,119.152 139.119 C 121.358 138.725,124.831 135.677,124.831 134.135 C 124.831 132.520,121.530 131.406,118.706 132.068 M295.065 143.967 C 291.071 145.563,287.854 146.919,287.917 146.982 C 287.979 147.044,289.478 147.211,291.248 147.352 C 295.226 147.671,295.159 147.573,295.573 153.638 C 295.584 153.790,297.265 150.980,301.005 144.561 C 302.135 142.622,302.894 141.042,302.692 141.051 C 302.491 141.060,299.058 142.372,295.065 143.967 M202.551 174.194 C 202.551 175.114,202.644 175.244,203.301 175.244 C 203.768 175.244,204.051 175.074,204.051 174.794 C 204.051 174.469,204.384 174.344,205.246 174.344 C 206.498 174.344,206.960 174.979,206.701 176.345 C 206.560 177.087,204.051 177.339,204.051 176.611 C 204.051 176.313,203.780 176.144,203.301 176.144 C 202.592 176.144,202.551 176.234,202.551 177.794 C 202.551 179.477,203.658 180.303,204.160 178.995 C 204.742 177.476,207.019 178.867,206.701 180.546 C 206.560 181.288,204.051 181.540,204.051 180.812 C 204.051 180.514,203.780 180.345,203.301 180.345 C 202.592 180.345,202.551 180.435,202.551 181.995 C 202.551 183.556,202.592 183.646,203.301 183.646 C 203.713 183.646,204.051 183.503,204.051 183.329 C 204.051 183.141,204.572 183.049,205.326 183.104 C 206.566 183.193,206.602 183.225,206.602 184.246 C 206.602 185.267,206.566 185.299,205.326 185.389 C 204.311 185.462,204.051 185.381,204.051 184.993 C 204.051 184.658,203.839 184.535,203.376 184.600 C 202.266 184.758,202.180 187.847,203.285 187.847 C 203.706 187.847,204.051 187.712,204.051 187.547 C 204.051 187.382,204.667 187.247,205.419 187.247 L 206.788 187.247 206.695 188.372 C 206.603 189.476,204.051 190.434,204.051 189.365 C 204.051 189.190,203.713 189.047,203.301 189.047 C 202.601 189.047,202.551 189.147,202.551 190.548 C 202.551 191.948,202.601 192.048,203.301 192.048 C 203.713 192.048,204.051 191.905,204.051 191.731 C 204.051 191.543,204.572 191.451,205.326 191.506 C 206.566 191.595,206.602 191.627,206.602 192.648 C 206.602 193.669,206.566 193.701,205.326 193.791 C 204.572 193.845,204.051 193.753,204.051 193.566 C 204.051 193.391,203.713 193.248,203.301 193.248 C 202.592 193.248,202.551 193.338,202.551 194.899 C 202.551 196.581,203.658 197.407,204.160 196.099 C 204.601 194.950,206.452 195.556,206.452 196.849 L 206.452 198.050 205.251 198.050 C 204.591 198.050,204.051 197.914,204.051 197.749 C 204.051 197.584,203.713 197.449,203.301 197.449 C 202.592 197.449,202.551 197.539,202.551 199.100 C 202.551 200.795,203.659 201.605,204.167 200.281 C 204.601 199.149,206.302 199.881,206.302 201.200 C 206.302 202.519,204.601 203.252,204.167 202.120 C 203.659 200.796,202.551 201.606,202.551 203.301 C 202.551 204.861,202.592 204.951,203.301 204.951 C 203.713 204.951,204.051 204.816,204.051 204.651 C 204.051 204.486,204.591 204.351,205.251 204.351 L 206.452 204.351 206.452 205.551 C 206.452 206.845,204.601 207.451,204.160 206.302 C 203.658 204.993,202.551 205.819,202.551 207.502 C 202.551 209.133,203.532 209.935,204.201 208.852 C 204.799 207.884,206.452 208.545,206.452 209.752 C 206.452 211.046,204.601 211.652,204.160 210.503 C 203.656 209.190,202.551 210.021,202.551 211.712 C 202.551 213.557,203.065 214.096,204.011 213.240 C 205.143 212.215,206.452 212.597,206.452 213.953 C 206.452 215.247,204.601 215.853,204.160 214.704 C 203.630 213.325,202.551 214.231,202.551 216.054 C 202.551 217.877,203.630 218.783,204.160 217.404 C 204.601 216.255,206.452 216.861,206.452 218.155 C 206.452 219.448,204.601 220.054,204.160 218.905 C 203.630 217.526,202.551 218.432,202.551 220.255 C 202.551 221.975,202.584 222.056,203.301 222.056 C 203.768 222.056,204.051 221.885,204.051 221.605 C 204.051 221.280,204.384 221.155,205.251 221.155 L 206.452 221.155 206.452 222.506 C 206.452 223.936,204.636 224.649,204.160 223.406 C 203.658 222.098,202.551 222.924,202.551 224.606 C 202.551 226.289,203.658 227.115,204.160 225.806 C 204.636 224.564,206.452 225.277,206.452 226.707 C 206.452 228.137,204.636 228.850,204.160 227.607 C 203.658 226.299,202.551 227.125,202.551 228.807 C 202.551 230.490,203.658 231.316,204.160 230.008 C 204.636 228.765,206.452 229.478,206.452 230.908 C 206.452 232.338,204.636 233.051,204.160 231.808 C 203.658 230.500,202.551 231.326,202.551 233.008 C 202.551 234.569,202.592 234.659,203.301 234.659 C 203.713 234.659,204.051 234.524,204.051 234.359 C 204.051 234.194,204.591 234.059,205.251 234.059 L 206.452 234.059 206.452 235.259 C 206.452 236.552,204.601 237.158,204.160 236.009 C 203.658 234.701,202.551 235.527,202.551 237.209 C 202.551 238.770,202.592 238.860,203.301 238.860 C 203.713 238.860,204.051 238.725,204.051 238.560 C 204.051 238.395,204.591 238.260,205.251 238.260 L 206.452 238.260 206.452 239.460 C 206.452 240.811,204.725 241.286,203.902 240.161 C 203.477 239.579,202.551 239.812,202.551 240.501 C 202.551 240.881,203.041 240.960,205.401 240.960 L 208.252 240.960 208.252 207.052 L 208.252 173.143 205.401 173.143 L 202.551 173.143 202.551 174.194 M323.781 183.585 C 323.781 183.741,324.395 185.253,325.145 186.945 C 326.765 190.599,326.866 190.407,323.576 189.940 C 318.044 189.154,311.411 190.250,306.229 192.804 L 303.435 194.182 303.923 195.325 L 304.411 196.468 305.469 195.774 C 309.049 193.426,313.893 192.198,319.580 192.198 C 326.757 192.198,327.084 192.420,323.307 194.729 C 321.891 195.594,320.790 196.359,320.860 196.429 C 321.034 196.603,338.368 197.505,339.330 197.390 C 339.990 197.312,339.065 196.409,332.624 190.848 C 323.885 183.302,323.781 183.216,323.781 183.585 " stroke="none" fill="#1e2869" fill-rule="evenodd"></path><path id="path2" d="M312.465 24.994 C 312.863 30.640,315.738 34.639,321.554 37.634 C 322.999 38.378,328.085 39.307,328.492 38.900 C 328.580 38.812,329.478 39.407,330.486 40.223 C 332.571 41.910,334.529 42.926,337.134 43.671 C 338.125 43.954,339.241 44.328,339.616 44.503 C 340.498 44.912,346.668 44.914,347.556 44.505 C 347.930 44.332,349.240 43.887,350.466 43.516 C 354.901 42.174,359.890 38.152,361.608 34.533 C 362.007 33.694,362.424 33.008,362.536 33.008 C 363.139 33.008,364.572 26.555,364.585 23.781 L 364.591 22.506 338.440 22.506 L 312.289 22.506 312.465 24.994 M65.716 54.646 C 65.716 55.906,67.296 59.715,67.819 59.715 C 67.968 59.715,68.588 60.053,69.196 60.465 C 69.804 60.878,70.560 61.215,70.877 61.215 C 71.194 61.215,71.370 61.350,71.268 61.515 C 71.151 61.704,71.809 61.815,73.033 61.815 C 74.106 61.815,75.060 61.691,75.155 61.538 C 75.249 61.386,75.712 61.177,76.184 61.073 C 78.575 60.548,80.659 57.825,80.955 54.839 L 81.097 53.413 73.407 53.413 L 65.716 53.413 65.716 54.646 M75.806 99.264 C 76.031 128.586,76.045 128.253,74.532 129.911 C 73.686 130.837,73.758 129.289,74.684 126.639 C 75.843 123.320,75.843 123.331,74.590 123.331 C 73.495 123.331,73.324 123.618,72.028 127.628 C 71.675 128.720,71.009 129.323,70.603 128.918 C 70.500 128.814,70.792 127.644,71.254 126.318 C 72.211 123.570,72.118 123.257,70.596 124.088 C 69.745 124.552,69.401 125.007,69.012 126.182 C 68.718 127.072,68.313 127.721,68.016 127.779 C 67.448 127.889,67.376 127.341,67.810 126.201 C 68.179 125.228,68.339 125.190,65.289 126.812 C 63.205 127.921,62.760 128.274,63.031 128.601 C 63.218 128.825,63.752 129.990,64.218 131.190 C 65.059 133.350,65.070 133.363,65.440 132.552 C 66.189 130.907,67.179 131.724,66.476 133.407 C 65.891 134.807,65.897 135.472,66.501 136.395 C 67.198 137.458,67.309 137.364,68.117 135.034 C 68.653 133.489,68.987 132.933,69.381 132.933 C 70.090 132.933,70.070 133.097,69.015 135.990 C 68.124 138.431,68.120 138.471,68.690 139.041 C 69.588 139.938,70.064 139.483,70.980 136.851 C 71.887 134.245,72.474 133.410,72.801 134.261 C 72.905 134.533,72.615 135.797,72.156 137.070 C 71.697 138.343,71.258 139.563,71.180 139.780 C 71.075 140.074,71.338 140.151,72.195 140.081 C 73.342 139.986,73.359 139.965,74.271 137.606 C 75.580 134.218,76.668 134.335,75.469 137.734 C 75.221 138.436,75.019 139.075,75.019 139.155 C 75.019 139.234,75.221 139.221,75.469 139.126 C 75.862 138.976,75.919 139.907,75.919 146.427 L 75.919 153.901 77.044 153.695 C 77.663 153.581,78.971 153.488,79.951 153.488 L 81.733 153.488 82.324 155.329 C 82.978 157.369,83.338 157.539,87.004 157.539 L 88.404 157.539 88.932 156.071 C 89.839 153.547,89.842 153.546,92.372 154.078 C 93.577 154.331,94.624 154.539,94.699 154.539 C 94.774 154.539,94.564 154.005,94.231 153.353 C 93.494 151.908,92.579 149.579,92.310 148.460 C 92.127 147.700,92.262 147.534,93.964 146.434 C 96.122 145.039,95.974 144.861,93.698 146.116 C 92.832 146.593,92.123 146.871,92.123 146.732 C 92.123 146.395,95.166 144.670,96.395 144.310 C 99.914 143.280,102.502 143.387,109.040 144.830 C 112.687 145.634,117.258 145.727,117.975 145.011 C 118.159 144.827,117.505 144.205,116.161 143.287 C 110.090 139.138,114.881 129.781,122.083 131.720 C 124.579 132.392,125.379 133.556,124.650 135.456 C 124.512 135.817,124.656 135.934,125.241 135.934 C 125.858 135.934,126.064 135.741,126.261 134.983 C 126.747 133.107,128.484 133.075,128.672 134.940 C 128.784 136.046,128.128 136.669,127.171 136.365 C 126.792 136.244,126.426 136.132,126.358 136.115 C 126.289 136.098,126.222 136.759,126.207 137.584 C 126.183 139.016,126.141 139.089,125.296 139.186 C 124.276 139.302,123.631 138.637,123.631 137.471 L 123.631 136.722 122.806 137.512 C 121.857 138.421,120.076 139.235,119.036 139.235 C 116.776 139.235,116.928 141.827,119.222 142.399 C 120.522 142.723,121.066 143.765,120.629 145.091 C 119.717 147.853,121.311 148.503,123.492 146.259 C 124.229 145.501,124.831 144.776,124.831 144.648 C 124.831 144.520,125.405 144.340,126.107 144.247 C 128.935 143.875,131.955 137.595,132.535 130.882 L 132.726 128.681 134.705 128.859 C 135.793 128.957,138.971 129.179,141.766 129.352 C 147.887 129.730,147.337 129.409,147.337 132.603 C 147.337 138.012,145.980 141.249,140.468 148.987 C 134.780 156.974,133.264 160.555,133.228 166.092 C 133.208 169.251,132.711 174.687,132.416 174.974 C 132.288 175.099,131.445 175.008,130.542 174.773 C 128.122 174.140,125.196 174.242,121.885 175.074 C 118.193 176.001,114.944 176.444,111.831 176.444 L 109.377 176.444 109.356 181.020 C 109.339 184.480,109.140 186.768,108.539 190.398 C 106.491 202.777,106.096 213.943,107.516 219.355 C 108.239 222.110,108.246 222.226,107.722 222.806 C 107.197 223.386,107.205 223.468,107.954 225.329 L 108.729 227.252 107.928 227.891 C 106.811 228.781,106.915 228.957,108.561 228.957 L 109.996 228.957 110.991 232.033 C 111.538 233.725,112.233 235.652,112.533 236.315 C 112.834 236.979,113.556 238.937,114.137 240.666 C 115.363 244.313,115.907 245.791,116.177 246.212 C 116.283 246.377,117.079 248.470,117.946 250.863 C 118.813 253.256,119.616 255.281,119.730 255.364 C 119.844 255.446,120.025 255.851,120.131 256.264 C 120.634 258.214,120.575 258.229,126.773 254.558 C 128.254 253.681,129.628 252.963,129.827 252.963 C 130.606 252.963,130.780 241.899,130.017 240.874 C 129.867 240.674,129.564 239.770,129.343 238.866 C 129.122 237.961,128.557 236.408,128.087 235.415 C 127.204 233.549,127.097 232.728,127.423 230.349 L 127.613 228.957 148.274 228.957 L 168.934 228.957 169.013 238.485 L 169.092 248.012 188.822 248.089 L 208.552 248.166 208.552 250.655 C 208.552 252.023,208.411 253.285,208.238 253.457 C 208.058 253.637,207.962 254.721,208.013 255.993 L 208.102 258.215 210.203 258.402 C 215.938 258.915,275.128 259.048,275.627 258.549 C 275.897 258.280,276.242 258.136,276.393 258.230 C 276.545 258.323,276.669 258.066,276.669 257.657 C 276.669 256.730,277.156 256.551,278.337 257.043 C 278.842 257.253,280.665 257.773,282.388 258.199 C 284.112 258.624,285.967 259.117,286.512 259.294 C 291.649 260.959,309.568 260.939,312.716 259.265 C 312.985 259.123,313.727 258.913,314.367 258.800 C 317.125 258.311,324.381 256.008,324.381 255.622 C 324.381 255.480,324.560 255.364,324.778 255.364 C 325.231 255.364,330.750 252.724,330.981 252.397 C 331.064 252.279,331.605 251.962,332.183 251.693 C 332.761 251.424,334.229 250.486,335.447 249.608 C 336.665 248.730,337.947 247.848,338.298 247.647 C 339.466 246.979,345.320 241.412,348.328 238.110 C 348.628 237.779,349.339 237.099,349.906 236.597 C 351.773 234.945,353.443 232.562,353.478 231.500 C 353.492 231.067,355.253 227.706,355.765 227.133 C 355.998 226.873,356.189 226.576,356.189 226.474 C 356.189 226.315,358.267 221.800,358.479 221.498 C 358.521 221.438,358.969 221.685,359.475 222.045 C 363.384 224.828,368.798 224.780,369.134 221.957 C 369.303 220.539,369.266 219.312,369.049 219.178 C 368.346 218.743,369.224 216.326,370.294 215.753 C 370.781 215.493,371.174 215.627,372.462 216.495 C 374.433 217.822,375.853 217.913,376.917 216.780 C 378.332 215.274,377.750 201.740,376.199 200.071 C 376.004 199.861,375.589 199.219,375.277 198.644 C 374.663 197.512,373.022 195.649,372.639 195.649 C 372.509 195.649,371.691 195.211,370.822 194.675 C 369.216 193.685,366.063 193.328,364.091 193.912 C 363.380 194.123,363.426 194.304,362.900 189.197 C 362.781 188.042,362.662 187.029,362.636 186.947 C 362.610 186.864,362.507 186.594,362.406 186.347 C 362.306 186.099,361.950 184.479,361.615 182.746 C 360.830 178.692,360.185 176.545,359.694 176.357 C 359.479 176.274,359.134 175.642,358.928 174.952 C 357.790 171.154,353.630 163.578,350.009 158.705 C 348.952 157.283,348.087 155.987,348.087 155.825 C 348.087 155.379,342.588 149.437,342.176 149.437 C 342.044 149.437,339.771 147.557,338.077 146.046 C 337.558 145.584,336.392 144.780,335.484 144.259 C 334.576 143.738,333.582 143.079,333.276 142.796 C 332.969 142.512,331.686 141.764,330.425 141.132 C 329.164 140.501,328.033 139.850,327.912 139.685 C 327.790 139.520,327.689 139.507,327.687 139.656 C 327.684 139.806,327.431 139.701,327.125 139.424 C 326.819 139.147,324.848 138.314,322.744 137.572 C 320.640 136.830,318.663 136.086,318.349 135.918 C 317.795 135.621,317.779 134.744,317.779 103.815 L 317.779 72.018 196.688 72.018 L 75.597 72.018 75.806 99.264 M272.983 87.077 C 274.888 88.438,276.776 91.972,276.743 94.117 C 276.713 96.122,277.441 97.728,278.841 98.742 L 280.023 99.598 278.499 100.536 L 276.974 101.474 278.124 102.875 C 280.593 105.882,282.092 109.398,282.811 113.862 C 283.073 115.494,283.733 117.884,284.329 119.363 C 286.765 125.402,285.969 131.133,282.695 131.133 C 281.560 131.133,281.534 131.159,280.858 132.967 C 279.341 137.021,275.942 140.338,270.124 143.440 C 262.781 147.355,259.565 150.258,259.565 152.971 C 259.565 155.919,257.816 161.247,255.931 164.040 C 254.855 165.635,254.355 166.717,254.170 167.850 C 253.606 171.317,251.818 174.515,248.784 177.483 C 246.951 179.277,246.952 178.697,248.768 183.771 C 249.590 186.067,250.263 187.991,250.263 188.047 C 250.263 188.102,245.064 188.147,238.710 188.147 C 232.356 188.147,227.157 188.039,227.157 187.908 C 227.157 187.322,229.612 185.380,231.808 184.230 C 237.705 181.139,239.988 178.761,240.053 175.641 C 240.061 175.263,237.933 174.737,228.979 172.904 C 225.937 172.282,223.399 171.622,223.338 171.439 C 223.124 170.798,225.977 169.228,228.409 168.648 C 229.720 168.334,231.387 167.851,232.112 167.574 L 233.431 167.071 233.519 165.381 L 233.608 163.691 235.169 163.601 C 236.404 163.529,236.693 163.418,236.558 163.064 C 236.463 162.819,236.585 162.387,236.828 162.104 C 237.263 161.599,238.537 155.547,240.370 145.276 C 242.769 131.837,243.085 131.472,254.614 128.863 C 257.254 128.265,259.617 127.704,259.865 127.617 C 260.578 127.365,258.079 126.374,255.085 125.720 C 248.617 124.309,247.881 123.289,249.393 117.836 C 251.718 109.447,251.431 109.921,253.435 111.181 C 254.608 111.918,259.707 113.464,261.527 113.634 C 264.865 113.946,266.476 112.183,267.704 106.879 L 268.352 104.080 267.709 102.937 C 267.356 102.308,267.046 101.272,267.022 100.634 L 266.977 99.475 266.767 100.825 L 266.557 102.176 266.512 101.026 C 266.484 100.315,266.818 99.075,267.385 97.782 C 268.655 94.890,268.553 94.551,266.218 93.914 C 264.928 93.561,263.989 93.076,263.292 92.400 C 262.271 91.410,262.265 91.409,262.247 92.139 C 262.228 92.858,262.222 92.860,261.964 92.221 C 260.272 88.020,268.759 84.058,272.983 87.077 M263.166 94.041 C 263.166 94.271,262.963 94.537,262.716 94.632 C 262.152 94.848,261.315 94.548,261.527 94.205 C 261.614 94.065,261.869 94.021,262.095 94.107 C 262.320 94.194,262.594 94.120,262.703 93.944 C 262.976 93.503,263.166 93.543,263.166 94.041 M244.652 101.827 C 244.904 102.212,246.270 103.980,247.687 105.754 C 249.104 107.528,250.263 109.159,250.263 109.380 C 250.263 110.130,248.487 110.255,247.743 109.557 C 247.358 109.195,246.319 108.788,245.300 108.600 C 243.063 108.186,242.290 107.629,240.388 105.064 C 238.459 102.461,238.444 102.534,241.035 101.797 C 243.866 100.992,244.106 100.994,244.652 101.827 M36.286 118.645 C 36.216 118.710,35.602 118.840,34.921 118.933 C 34.240 119.026,32.985 119.513,32.132 120.016 C 31.279 120.519,30.498 120.930,30.396 120.930 C 30.098 120.930,28.494 122.807,28.023 123.706 C 27.786 124.160,27.473 124.531,27.327 124.531 C 26.993 124.531,25.417 128.310,24.762 130.683 C 24.489 131.673,24.185 132.686,24.086 132.933 C 23.988 133.181,23.894 133.451,23.877 133.533 C 23.861 133.616,23.729 133.869,23.586 134.095 C 23.443 134.321,23.310 135.437,23.291 136.574 C 23.241 139.539,24.714 140.784,26.951 139.668 C 30.198 138.048,31.850 139.573,30.308 142.765 C 27.944 147.657,31.208 149.746,38.907 148.270 C 43.171 147.453,43.800 148.051,42.922 152.087 C 41.549 158.397,42.443 163.734,45.191 165.641 C 45.786 166.054,46.513 166.612,46.808 166.882 C 48.491 168.425,51.449 168.912,52.576 167.832 L 53.422 167.021 55.075 167.832 C 57.207 168.877,57.067 168.904,59.131 167.067 C 61.177 165.246,61.151 165.349,60.152 163.091 C 59.733 162.142,59.429 161.336,59.477 161.299 C 60.173 160.774,63.480 158.668,64.477 158.116 L 65.788 157.389 67.222 159.015 L 68.656 160.641 71.012 159.756 L 73.368 158.870 73.457 156.668 C 73.529 154.887,73.443 154.353,73.007 153.871 C 72.213 152.992,68.313 150.342,65.573 148.818 C 60.685 146.100,59.678 144.223,59.143 136.834 C 58.626 129.710,56.649 126.332,52.996 126.332 C 52.420 126.332,51.863 126.193,51.759 126.025 C 51.654 125.856,50.735 125.735,49.715 125.756 C 48.696 125.777,47.539 125.780,47.144 125.763 C 46.348 125.728,43.811 123.319,43.811 122.598 C 43.811 121.981,41.610 119.730,41.007 119.730 C 40.734 119.730,40.510 119.572,40.510 119.380 C 40.510 119.187,40.425 119.115,40.321 119.219 C 40.216 119.323,39.913 119.293,39.645 119.152 C 39.093 118.860,36.478 118.465,36.286 118.645 M126.911 134.309 C 126.625 134.653,126.603 134.922,126.831 135.284 C 127.574 136.463,128.781 135.647,128.120 134.412 C 127.744 133.709,127.431 133.682,126.911 134.309 M124.339 136.685 C 124.028 137.497,124.499 138.635,125.146 138.635 C 125.944 138.635,126.206 137.871,125.721 136.964 C 125.281 136.143,124.600 136.005,124.339 136.685 M303.376 140.761 C 303.376 141.070,303.023 141.710,299.775 147.288 C 295.137 155.254,295.466 154.824,295.161 153.301 C 295.058 152.785,294.974 151.614,294.974 150.698 L 294.974 149.033 294.195 149.760 C 289.272 154.361,285.832 165.246,286.851 172.997 C 288.019 181.882,294.770 192.574,298.939 192.143 C 300.532 191.979,302.690 192.681,303.218 193.535 C 303.325 193.709,304.104 193.467,305.114 192.944 C 311.058 189.868,320.792 188.374,325.516 189.814 C 326.177 190.015,326.163 189.940,325.111 187.659 C 322.523 182.049,322.486 181.680,324.711 183.617 C 327.022 185.630,337.737 194.850,339.265 196.140 C 340.074 196.823,340.650 197.471,340.546 197.580 C 340.442 197.689,336.093 197.569,330.882 197.313 C 325.671 197.058,321.131 196.849,320.794 196.849 C 319.686 196.849,320.144 196.343,322.724 194.718 C 326.009 192.649,325.830 192.498,320.090 192.498 C 312.371 192.498,305.043 194.978,304.324 197.834 C 303.234 202.161,298.152 203.098,295.462 199.467 C 294.690 198.425,294.613 195.781,295.323 194.715 C 295.791 194.014,295.756 193.950,293.717 191.801 C 282.644 180.127,281.548 162.930,291.071 150.291 C 293.077 147.630,293.089 147.648,289.365 147.641 C 285.650 147.634,286.435 146.963,293.174 144.384 C 294.906 143.721,297.809 142.565,299.625 141.817 C 303.245 140.324,303.376 140.287,303.376 140.761 M330.553 148.260 C 337.116 149.450,342.663 155.656,342.682 161.831 L 342.686 162.972 341.113 162.881 L 339.541 162.791 339.310 161.140 C 337.527 148.377,318.477 148.469,316.918 161.247 L 316.729 162.791 315.154 162.881 L 313.578 162.972 313.578 161.638 C 313.578 153.681,322.344 146.772,330.553 148.260 M334.507 159.308 L 335.780 160.287 334.827 161.689 C 334.302 162.460,332.777 164.509,331.437 166.242 C 330.098 167.974,328.093 170.571,326.983 172.012 L 324.964 174.631 330.899 174.712 L 336.834 174.794 336.834 176.894 L 336.834 178.995 326.557 179.074 C 320.904 179.117,316.279 179.049,316.279 178.922 C 316.279 178.620,318.675 175.450,324.381 168.199 C 326.939 164.949,329.820 161.281,330.784 160.049 C 331.963 158.541,332.649 157.894,332.884 158.069 C 333.076 158.212,333.806 158.769,334.507 159.308 M96.924 158.354 C 96.924 158.682,91.864 162.345,88.797 164.237 C 86.025 165.948,85.399 165.986,80.570 164.741 C 76.581 163.713,75.028 163.624,73.790 164.356 C 72.526 165.102,72.709 165.341,74.544 165.341 C 76.313 165.341,77.119 165.545,77.119 165.993 C 77.119 166.154,76.102 166.262,74.794 166.239 C 71.482 166.182,71.582 166.166,72.005 166.676 C 72.575 167.363,74.011 167.700,77.656 168.005 C 82.514 168.412,82.604 168.536,80.270 171.616 C 78.159 174.402,78.064 176.130,80.123 174.269 C 80.971 173.502,83.796 171.408,84.921 170.710 C 85.981 170.054,89.665 168.559,93.814 167.102 C 97.068 165.959,101.765 162.777,101.718 161.747 C 101.696 161.262,96.924 157.884,96.924 158.354 M208.478 207.127 L 208.555 241.260 205.416 241.260 L 202.278 241.260 202.339 238.335 L 202.401 235.409 203.376 235.315 C 204.100 235.245,204.351 235.341,204.351 235.690 C 204.351 236.011,204.635 236.159,205.251 236.159 C 206.052 236.159,206.152 236.059,206.152 235.259 C 206.152 234.459,206.052 234.359,205.251 234.359 C 204.756 234.359,204.351 234.494,204.351 234.659 C 204.351 234.824,203.878 234.959,203.301 234.959 L 202.251 234.959 202.251 233.008 L 202.251 231.058 203.301 231.058 C 204.034 231.058,204.351 231.194,204.351 231.508 C 204.351 231.808,204.651 231.958,205.251 231.958 C 206.052 231.958,206.152 231.858,206.152 231.058 C 206.152 230.258,206.052 230.158,205.251 230.158 C 204.756 230.158,204.351 230.293,204.351 230.458 C 204.351 230.623,203.878 230.758,203.301 230.758 L 202.251 230.758 202.251 228.807 L 202.251 226.857 203.301 226.857 C 203.878 226.857,204.351 226.992,204.351 227.157 C 204.351 227.322,204.756 227.457,205.251 227.457 C 206.052 227.457,206.152 227.357,206.152 226.557 C 206.152 225.756,206.052 225.656,205.251 225.656 C 204.651 225.656,204.351 225.806,204.351 226.107 C 204.351 226.421,204.034 226.557,203.301 226.557 L 202.251 226.557 202.251 224.606 L 202.251 222.656 203.301 222.656 C 203.878 222.656,204.351 222.791,204.351 222.956 C 204.351 223.121,204.756 223.256,205.251 223.256 C 206.052 223.256,206.152 223.156,206.152 222.356 C 206.152 221.332,204.596 220.984,204.235 221.926 C 204.117 222.232,203.767 222.363,203.228 222.301 C 202.041 222.164,201.739 218.469,202.911 218.434 L 203.601 218.414 202.913 218.083 C 201.865 217.578,202.031 214.156,203.110 214.003 C 203.501 213.948,203.963 214.046,204.138 214.221 C 204.363 214.445,204.574 214.442,204.854 214.210 C 205.145 213.968,205.372 213.980,205.701 214.254 C 206.082 214.569,206.152 214.506,206.152 213.840 C 206.152 213.166,206.023 213.053,205.251 213.053 C 204.756 213.053,204.351 213.188,204.351 213.353 C 204.351 213.518,203.883 213.653,203.311 213.653 L 202.271 213.653 202.271 209.602 C 202.271 206.623,202.367 205.550,202.636 205.547 C 202.902 205.543,202.895 205.475,202.609 205.294 C 201.662 204.693,202.290 201.511,203.376 201.406 C 204.100 201.336,204.351 201.433,204.351 201.781 C 204.351 202.103,204.635 202.251,205.251 202.251 C 206.080 202.251,206.152 202.167,206.152 201.200 C 206.152 200.233,206.080 200.150,205.251 200.150 C 204.635 200.150,204.351 200.298,204.351 200.619 C 204.351 200.968,204.100 201.064,203.376 200.994 C 202.401 200.900,202.401 200.900,202.311 199.025 L 202.222 197.149 203.287 197.149 C 204.033 197.149,204.351 197.284,204.351 197.599 C 204.351 197.899,204.651 198.050,205.251 198.050 C 206.080 198.050,206.152 197.966,206.152 196.999 C 206.152 195.841,204.633 195.381,204.235 196.419 C 203.693 197.832,202.401 196.761,202.401 194.899 C 202.401 192.950,203.344 192.175,204.234 193.392 C 204.899 194.303,206.285 193.874,206.396 192.723 C 206.486 191.788,206.446 191.748,205.420 191.748 C 204.832 191.748,204.351 191.874,204.351 192.028 C 204.351 192.505,203.146 192.718,202.672 192.325 C 201.715 191.530,202.237 188.913,203.376 188.803 C 203.924 188.750,204.351 188.849,204.351 189.028 C 204.351 189.204,204.824 189.347,205.401 189.347 C 206.402 189.347,206.452 189.297,206.452 188.297 C 206.452 187.297,206.402 187.247,205.401 187.247 C 204.649 187.247,204.351 187.380,204.351 187.716 C 204.351 188.064,204.100 188.161,203.376 188.091 C 202.412 187.998,202.400 187.977,202.311 186.272 L 202.221 184.546 203.286 184.546 C 203.872 184.546,204.351 184.681,204.351 184.846 C 204.351 185.011,204.832 185.146,205.420 185.146 C 206.446 185.146,206.486 185.106,206.396 184.171 C 206.289 183.066,204.351 182.426,204.351 183.496 C 204.351 183.866,204.115 183.961,203.376 183.890 C 202.412 183.797,202.400 183.776,202.311 182.071 L 202.221 180.345 203.286 180.345 C 203.872 180.345,204.351 180.480,204.351 180.645 C 204.351 180.810,204.832 180.945,205.420 180.945 C 206.446 180.945,206.486 180.905,206.396 179.970 C 206.285 178.819,204.899 178.391,204.234 179.301 C 203.344 180.518,202.401 179.743,202.401 177.794 C 202.401 175.932,203.693 174.861,204.235 176.274 C 204.632 177.310,206.502 176.873,206.396 175.769 C 206.285 174.618,204.899 174.190,204.234 175.100 C 203.580 175.994,202.416 175.557,202.303 174.375 C 202.171 172.988,202.545 172.828,205.701 172.917 L 208.402 172.993 208.478 207.127 M176.956 198.974 C 177.817 201.684,178.785 204.644,179.107 205.551 C 180.437 209.304,182.746 216.609,182.746 217.064 C 182.746 218.226,180.389 217.678,178.880 216.165 C 177.227 214.507,174.186 212.013,170.893 209.614 C 169.572 208.652,168.453 207.834,168.404 207.796 C 168.257 207.680,165.941 198.656,165.941 198.201 C 165.941 197.766,166.615 197.417,171.793 195.166 C 175.563 193.527,175.120 193.200,176.956 198.974 M204.351 204.776 C 204.351 205.010,204.182 205.269,203.976 205.353 C 203.676 205.474,203.676 205.509,203.976 205.528 C 204.182 205.541,204.351 205.754,204.351 206.002 C 204.351 206.302,204.651 206.452,205.251 206.452 C 206.080 206.452,206.152 206.368,206.152 205.401 C 206.152 204.434,206.080 204.351,205.251 204.351 C 204.675 204.351,204.351 204.504,204.351 204.776 M204.275 209.227 C 203.997 210.053,204.422 210.653,205.286 210.653 C 206.048 210.653,206.152 210.545,206.152 209.752 C 206.152 208.797,204.569 208.354,204.275 209.227 M330.621 215.099 L 330.710 217.295 326.570 217.253 C 324.293 217.229,320.574 217.220,318.305 217.232 L 314.179 217.254 314.179 224.591 C 314.179 231.189,314.127 231.957,313.668 232.214 C 313.230 232.459,313.215 232.571,313.567 232.994 C 313.941 233.446,313.799 233.480,311.902 233.398 L 309.827 233.308 309.742 223.706 C 309.696 218.425,309.732 213.800,309.823 213.428 L 309.989 212.753 320.261 212.828 L 330.533 212.903 330.621 215.099 M191.023 216.734 C 191.167 217.187,190.842 217.703,189.679 218.866 C 187.919 220.626,187.852 220.616,185.928 218.346 L 184.734 216.937 186.335 215.315 L 187.937 213.694 189.385 214.915 C 190.182 215.586,190.919 216.405,191.023 216.734 M324.544 215.433 C 324.322 215.792,324.887 216.148,325.286 215.901 C 325.622 215.694,325.401 215.154,324.981 215.154 C 324.836 215.154,324.639 215.279,324.544 215.433 M328.432 216.054 C 328.187 216.450,328.546 217.012,328.903 216.791 C 329.267 216.566,329.265 215.754,328.900 215.754 C 328.745 215.754,328.534 215.889,328.432 216.054 M322.726 222.517 C 337.573 226.384,336.830 247.985,321.741 251.131 C 319.006 251.701,318.980 251.689,318.980 249.845 L 318.980 248.226 320.750 247.914 C 333.427 245.681,333.221 226.959,320.503 225.453 L 318.980 225.273 318.980 223.664 L 318.980 222.056 319.967 222.056 C 320.510 222.056,321.752 222.263,322.726 222.517 M65.866 228.057 C 66.102 228.439,67.527 228.439,68.117 228.057 C 68.442 227.847,68.166 227.765,67.124 227.762 C 66.237 227.759,65.753 227.873,65.866 228.057 M98.650 228.282 C 97.856 228.462,98.021 228.957,98.875 228.957 C 99.287 228.957,99.625 228.830,99.625 228.675 C 99.625 228.284,99.270 228.141,98.650 228.282 M67.517 228.926 C 67.517 229.241,69.863 229.531,70.518 229.296 C 70.837 229.182,70.750 229.074,70.218 228.926 C 69.110 228.617,67.517 228.617,67.517 228.926 M68.601 230.103 C 68.361 230.491,69.449 230.749,69.959 230.425 C 70.220 230.260,70.241 230.165,70.017 230.162 C 69.824 230.160,69.467 230.081,69.222 229.987 C 68.978 229.893,68.698 229.945,68.601 230.103 M79.929 231.509 C 80.034 231.782,79.928 231.958,79.660 231.958 C 79.418 231.958,79.220 232.161,79.220 232.408 C 79.220 232.918,79.690 233.012,79.970 232.558 C 80.072 232.393,80.477 232.258,80.870 232.258 C 81.496 232.258,82.167 231.773,81.876 231.531 C 81.392 231.131,79.777 231.113,79.929 231.509 M204.275 238.935 C 203.997 239.761,204.422 240.360,205.286 240.360 C 206.048 240.360,206.152 240.252,206.152 239.460 C 206.152 238.505,204.569 238.062,204.275 238.935 " stroke="none" fill="#f7f7f8" fill-rule="evenodd"></path><path id="path3" d="M29.407 36.546 C 29.407 38.519,30.268 41.095,31.634 43.205 C 38.144 53.270,54.314 48.849,54.314 37.005 L 54.314 35.409 41.860 35.409 L 29.407 35.409 29.407 36.546 M330.148 77.937 C 329.600 78.005,329.002 78.317,328.800 78.639 C 328.601 78.959,328.114 79.220,327.717 79.220 C 326.686 79.220,325.329 80.764,325.100 82.199 C 324.848 83.777,325.186 85.521,325.745 85.521 C 325.985 85.521,326.182 85.656,326.182 85.821 C 326.182 85.986,326.452 86.122,326.782 86.122 C 327.112 86.122,327.382 86.257,327.382 86.422 C 327.382 86.587,327.527 86.722,327.703 86.722 C 328.694 86.722,329.483 88.797,329.521 91.499 C 329.546 93.281,329.593 93.399,330.421 93.747 C 331.601 94.243,337.994 93.589,338.762 92.894 C 339.048 92.635,339.508 92.423,339.784 92.423 C 340.059 92.423,340.285 92.221,340.285 91.973 C 340.285 91.725,340.407 91.523,340.557 91.523 C 340.961 91.523,342.445 88.861,342.233 88.518 C 342.132 88.355,342.185 88.222,342.349 88.222 C 342.834 88.222,342.372 84.128,341.842 83.727 C 341.728 83.641,341.301 82.929,340.891 82.146 C 340.482 81.362,339.976 80.720,339.766 80.720 C 339.556 80.720,339.385 80.585,339.385 80.420 C 339.385 80.255,339.182 80.120,338.935 80.120 C 338.687 80.120,338.485 79.985,338.485 79.820 C 338.485 79.655,338.282 79.520,338.035 79.520 C 337.787 79.520,337.584 79.385,337.584 79.220 C 337.584 79.055,337.359 78.920,337.083 78.920 C 336.807 78.920,336.331 78.693,336.026 78.417 C 335.599 78.031,335.387 77.996,335.117 78.267 C 334.633 78.750,334.284 78.709,334.284 78.170 C 334.284 77.715,332.676 77.625,330.148 77.937 M60.631 87.805 C 59.567 88.038,58.622 88.343,58.531 88.485 C 58.439 88.626,58.027 88.846,57.614 88.974 C 50.432 91.201,46.223 100.544,50.648 104.438 C 54.250 107.609,54.249 109.049,50.643 111.172 C 46.213 113.780,46.099 116.551,50.344 118.429 C 54.340 120.195,55.173 122.092,52.947 124.350 C 51.430 125.889,51.441 126.332,52.996 126.332 C 56.649 126.332,58.626 129.710,59.143 136.834 C 59.678 144.223,60.685 146.100,65.573 148.818 C 68.313 150.342,72.213 152.992,73.007 153.871 C 73.443 154.353,73.529 154.887,73.457 156.668 L 73.368 158.870 71.012 159.756 L 68.656 160.641 67.222 159.015 L 65.788 157.389 64.477 158.116 C 63.480 158.668,60.173 160.774,59.477 161.299 C 59.429 161.336,59.733 162.142,60.152 163.091 C 61.151 165.349,61.177 165.246,59.131 167.067 C 57.070 168.901,57.203 168.875,55.106 167.847 L 53.485 167.052 52.091 168.217 C 50.903 169.210,48.312 172.866,48.312 173.549 C 48.312 173.670,48.914 174.413,49.651 175.200 L 50.989 176.631 50.041 178.935 L 49.093 181.238 47.078 181.051 L 45.063 180.864 44.462 182.183 C 43.032 185.322,42.760 189.024,43.958 189.043 C 44.121 189.045,44.834 189.284,45.541 189.572 L 46.828 190.098 46.745 192.629 L 46.662 195.160 44.711 195.782 L 42.761 196.403 42.863 198.352 C 42.973 200.454,43.684 204.625,43.982 204.920 C 44.082 205.020,45.119 205.101,46.286 205.101 L 48.407 205.101 49.155 207.337 L 49.903 209.573 48.337 211.012 C 46.681 212.535,46.595 212.933,47.646 214.209 C 47.930 214.554,48.702 215.784,49.362 216.944 C 50.744 219.371,50.979 219.447,53.361 218.242 L 54.967 217.429 55.526 218.167 L 56.085 218.905 54.905 219.074 C 52.742 219.385,53.032 219.846,55.514 220.043 C 56.458 220.118,56.220 220.166,54.721 220.203 C 52.304 220.262,51.125 221.115,53.348 221.196 C 54.115 221.224,54.229 221.274,53.713 221.355 C 52.021 221.622,51.613 221.788,51.613 222.211 C 51.613 222.456,51.410 222.656,51.163 222.656 C 49.556 222.656,50.910 223.561,52.588 223.609 L 54.464 223.662 52.387 223.834 C 49.985 224.033,49.215 224.742,51.363 224.777 C 52.818 224.801,52.174 225.296,50.638 225.335 C 49.926 225.353,49.812 225.480,49.812 226.257 L 49.812 227.157 52.288 227.216 L 54.764 227.276 52.513 227.373 C 49.449 227.504,49.528 227.451,49.879 229.160 C 50.043 229.956,50.169 230.865,50.160 231.179 C 50.143 231.732,50.402 231.744,58.295 231.539 C 66.543 231.325,69.053 231.452,62.716 231.763 C 60.818 231.857,57.341 232.026,54.989 232.140 C 51.699 232.299,50.713 232.441,50.713 232.753 C 50.713 233.022,51.140 233.174,51.988 233.206 C 53.122 233.249,53.153 233.268,52.270 233.377 C 51.723 233.444,51.323 233.591,51.379 233.704 C 51.436 233.816,51.668 234.280,51.896 234.734 C 52.259 235.458,52.496 235.565,53.837 235.611 C 55.344 235.663,55.348 235.665,54.089 235.779 C 52.878 235.888,52.144 236.759,53.263 236.759 C 53.511 236.759,53.713 236.962,53.713 237.209 C 53.713 237.457,53.968 237.659,54.279 237.659 C 54.591 237.659,54.914 237.927,55.001 238.260 C 55.140 238.793,55.436 238.866,57.661 238.918 C 59.974 238.971,60.021 238.984,58.270 239.082 C 56.356 239.190,55.758 239.788,57.338 240.014 C 57.738 240.071,58.173 240.307,58.304 240.539 C 58.474 240.837,59.220 240.972,60.855 241.001 C 62.126 241.024,62.828 241.103,62.416 241.177 C 61.433 241.353,60.898 241.860,61.695 241.860 C 62.026 241.860,62.429 241.994,62.593 242.158 C 62.789 242.354,63.242 242.354,63.926 242.158 C 64.496 241.994,65.908 241.859,67.065 241.856 C 70.909 241.849,71.951 241.055,68.342 240.883 C 66.697 240.805,66.997 240.765,69.570 240.720 C 72.696 240.665,72.987 240.611,73.131 240.060 C 73.219 239.723,73.541 239.460,73.863 239.460 C 74.580 239.460,74.951 238.591,74.387 238.234 C 74.086 238.043,74.199 237.967,74.794 237.964 C 75.325 237.961,75.619 237.799,75.619 237.509 C 75.619 237.262,75.754 237.059,75.919 237.059 C 76.615 237.059,76.151 236.189,75.394 236.074 L 74.569 235.949 75.403 235.904 C 75.862 235.879,76.316 235.656,76.411 235.409 C 76.506 235.161,76.919 234.959,77.328 234.959 C 78.258 234.959,79.197 233.873,79.210 232.783 C 79.215 232.329,79.355 231.958,79.520 231.958 C 79.685 231.958,79.820 231.741,79.820 231.476 C 79.820 231.159,79.983 231.056,80.295 231.176 C 80.556 231.276,81.640 231.358,82.705 231.358 C 84.277 231.358,84.675 231.456,84.825 231.883 C 84.926 232.172,85.260 232.975,85.566 233.667 C 85.871 234.359,86.122 235.068,86.122 235.242 C 86.122 235.643,88.122 235.651,89.793 235.257 C 90.497 235.090,91.849 234.811,92.798 234.635 L 94.524 234.316 94.524 232.143 L 94.524 229.971 96.032 229.584 C 96.862 229.372,97.706 229.035,97.908 228.836 C 98.646 228.107,99.269 228.078,99.720 228.750 C 99.963 229.112,100.586 229.876,101.104 230.448 L 102.046 231.489 104.362 230.314 C 105.635 229.668,107.132 228.697,107.688 228.158 L 108.699 227.177 107.939 225.291 C 107.204 223.467,107.197 223.386,107.722 222.806 C 108.246 222.226,108.239 222.110,107.516 219.355 C 106.115 214.017,106.476 203.235,108.479 190.548 C 109.413 184.636,109.663 181.339,109.395 178.482 L 109.183 176.214 108.048 176.032 C 105.302 175.593,99.475 170.716,98.136 167.735 C 97.730 166.831,97.369 166.046,97.335 165.990 C 97.155 165.703,86.408 169.790,84.921 170.710 C 83.796 171.408,80.971 173.502,80.123 174.269 C 78.064 176.130,78.159 174.402,80.270 171.616 C 82.604 168.536,82.514 168.412,77.656 168.005 C 74.011 167.700,72.575 167.363,72.005 166.676 C 71.582 166.166,71.482 166.182,74.794 166.239 C 76.102 166.262,77.119 166.154,77.119 165.993 C 77.119 165.545,76.313 165.341,74.544 165.341 C 72.709 165.341,72.526 165.102,73.790 164.356 C 75.028 163.624,76.581 163.713,80.570 164.741 C 85.396 165.985,86.024 165.947,88.797 164.241 C 91.569 162.534,96.337 159.133,96.844 158.500 C 97.175 158.088,97.288 158.099,97.895 158.603 C 98.269 158.914,97.947 158.524,97.179 157.737 C 96.411 156.951,95.626 155.927,95.433 155.461 C 95.119 154.702,94.832 154.565,92.628 154.123 C 89.800 153.555,89.845 153.531,88.932 156.071 L 88.404 157.539 87.004 157.539 C 83.338 157.539,82.978 157.369,82.324 155.329 L 81.733 153.488 79.951 153.488 C 78.971 153.488,77.663 153.581,77.044 153.695 L 75.919 153.901 75.919 146.427 C 75.919 139.907,75.862 138.976,75.469 139.126 C 74.914 139.339,74.914 139.307,75.469 137.734 C 76.668 134.335,75.580 134.218,74.271 137.606 C 73.359 139.965,73.342 139.986,72.195 140.081 C 71.338 140.151,71.075 140.074,71.180 139.780 C 71.258 139.563,71.697 138.343,72.156 137.070 C 72.615 135.797,72.905 134.533,72.801 134.261 C 72.474 133.410,71.887 134.245,70.980 136.851 C 70.064 139.483,69.588 139.938,68.690 139.041 C 68.120 138.471,68.124 138.431,69.015 135.990 C 70.070 133.097,70.090 132.933,69.381 132.933 C 68.987 132.933,68.653 133.489,68.117 135.034 C 67.309 137.364,67.198 137.458,66.501 136.395 C 65.897 135.472,65.891 134.807,66.476 133.407 C 67.179 131.724,66.189 130.907,65.440 132.552 C 65.070 133.363,65.059 133.350,64.218 131.190 C 63.752 129.990,63.218 128.825,63.031 128.601 C 62.760 128.274,63.205 127.921,65.289 126.812 C 68.339 125.190,68.179 125.228,67.810 126.201 C 67.376 127.341,67.448 127.889,68.016 127.779 C 68.313 127.721,68.718 127.072,69.012 126.182 C 69.401 125.007,69.745 124.552,70.596 124.088 C 72.118 123.257,72.211 123.570,71.254 126.318 C 70.792 127.644,70.500 128.814,70.603 128.918 C 71.009 129.323,71.675 128.720,72.028 127.628 C 73.324 123.618,73.495 123.331,74.590 123.331 C 75.843 123.331,75.843 123.320,74.684 126.639 C 73.389 130.346,74.021 131.778,75.376 128.209 C 75.876 126.893,75.919 125.444,75.919 109.625 L 75.919 92.469 75.170 91.579 C 74.759 91.090,73.510 90.236,72.395 89.681 C 71.280 89.126,70.291 88.569,70.197 88.443 C 69.503 87.509,63.743 87.125,60.631 87.805 M262.703 93.944 C 262.594 94.120,262.320 94.194,262.095 94.107 C 261.869 94.021,261.614 94.065,261.527 94.205 C 261.315 94.548,262.152 94.848,262.716 94.632 C 262.963 94.537,263.166 94.271,263.166 94.041 C 263.166 93.543,262.976 93.503,262.703 93.944 M278.204 103.301 C 279.440 105.004,279.960 105.523,279.407 104.501 C 279.250 104.212,278.634 103.436,278.037 102.776 C 276.997 101.625,277.004 101.647,278.204 103.301 M268.018 105.401 C 267.824 106.433,267.596 107.614,267.513 108.027 L 267.360 108.777 267.656 108.027 C 268.154 106.767,268.828 103.526,268.592 103.526 C 268.471 103.526,268.212 104.370,268.018 105.401 M241.257 106.222 C 241.778 106.880,242.361 107.515,242.553 107.634 C 242.744 107.752,242.380 107.214,241.744 106.438 C 241.108 105.661,240.525 105.026,240.449 105.026 C 240.372 105.026,240.736 105.565,241.257 106.222 M248.755 107.454 C 249.419 108.294,249.962 109.101,249.962 109.249 C 249.962 109.831,248.441 109.901,247.775 109.349 L 247.112 108.799 247.752 109.495 C 248.454 110.258,250.263 110.175,250.263 109.380 C 250.263 108.987,247.990 105.926,247.698 105.926 C 247.615 105.926,248.091 106.614,248.755 107.454 M279.975 106.752 C 279.978 107.340,280.054 107.458,280.242 107.162 C 280.447 106.838,280.550 106.892,280.715 107.410 C 280.830 107.774,280.990 108.007,281.070 107.927 C 281.227 107.770,280.345 105.926,280.112 105.926 C 280.034 105.926,279.972 106.298,279.975 106.752 M281.311 108.852 C 281.493 109.320,282.100 111.643,282.466 113.278 C 282.569 113.737,282.609 113.692,282.636 113.085 C 282.673 112.231,281.558 108.327,281.276 108.327 C 281.183 108.327,281.198 108.563,281.311 108.852 M250.875 112.410 C 250.538 113.500,250.274 114.614,250.287 114.885 C 250.301 115.157,250.643 114.332,251.047 113.053 L 251.781 110.727 252.822 111.162 C 253.395 111.402,253.863 111.530,253.863 111.447 C 253.863 111.305,251.946 110.428,251.635 110.428 C 251.553 110.428,251.211 111.320,250.875 112.410 M264.516 113.169 C 263.781 113.656,263.258 113.741,261.665 113.633 C 260.511 113.555,259.960 113.600,260.315 113.744 C 261.844 114.362,265.566 113.610,265.566 112.683 C 265.566 112.476,265.550 112.483,264.516 113.169 M284.858 121.238 C 286.327 125.938,285.216 130.698,282.605 130.891 C 281.903 130.943,281.334 131.148,281.291 131.365 C 281.249 131.576,281.284 131.610,281.368 131.440 C 281.452 131.271,282.044 131.133,282.683 131.133 C 285.343 131.133,287.020 124.044,285.028 121.224 C 284.755 120.837,284.733 120.839,284.858 121.238 M250.385 124.073 C 251.307 124.820,253.748 125.647,254.072 125.323 C 254.177 125.217,253.990 125.131,253.656 125.131 C 253.321 125.131,252.252 124.734,251.280 124.248 C 249.712 123.465,249.611 123.445,250.385 124.073 M259.792 127.131 C 259.999 127.215,260.092 127.407,259.999 127.558 C 259.906 127.708,259.965 127.832,260.130 127.832 C 260.660 127.832,260.778 127.301,260.289 127.113 C 260.029 127.013,259.726 126.942,259.615 126.955 C 259.505 126.968,259.584 127.048,259.792 127.131 M120.105 131.640 C 120.394 131.715,120.866 131.715,121.155 131.640 C 121.444 131.564,121.208 131.502,120.630 131.502 C 120.053 131.502,119.816 131.564,120.105 131.640 M126.692 133.893 C 126.063 134.522,126.304 134.852,126.959 134.259 C 127.849 133.453,128.816 134.562,128.147 135.620 C 127.913 135.990,127.758 135.996,127.120 135.655 C 126.471 135.307,126.302 135.320,125.871 135.751 C 125.340 136.283,125.501 137.312,126.061 136.966 C 126.296 136.821,126.274 136.682,125.989 136.501 C 125.683 136.308,125.675 136.233,125.956 136.201 C 126.163 136.178,126.500 136.138,126.707 136.111 C 126.913 136.085,127.179 136.203,127.298 136.374 C 127.656 136.887,128.571 136.115,128.679 135.210 C 128.843 133.828,127.589 132.996,126.692 133.893 M114.145 135.193 C 113.871 135.611,113.702 136.007,113.768 136.074 C 113.835 136.141,114.117 135.799,114.395 135.314 C 115.015 134.235,114.831 134.146,114.145 135.193 M124.285 135.360 C 124.079 135.689,123.993 136.091,124.093 136.254 C 124.194 136.416,124.159 136.512,124.016 136.467 C 123.874 136.421,123.155 136.907,122.419 137.546 C 121.683 138.185,121.352 138.569,121.684 138.399 C 122.016 138.229,122.540 137.811,122.849 137.469 C 123.446 136.809,124.012 136.873,123.745 137.571 C 123.432 138.385,124.157 139.168,125.176 139.117 C 125.704 139.090,126.192 138.905,126.258 138.704 C 126.344 138.447,126.112 138.393,125.470 138.522 C 124.351 138.746,124.002 137.860,124.499 136.061 C 124.867 134.727,124.806 134.525,124.285 135.360 M276.969 138.485 C 276.240 139.227,275.712 139.835,275.794 139.835 C 275.877 139.835,276.540 139.227,277.269 138.485 C 277.998 137.742,278.527 137.134,278.445 137.134 C 278.362 137.134,277.698 137.742,276.969 138.485 M113.204 138.785 C 113.207 139.445,113.269 139.680,113.341 139.306 C 113.412 138.933,113.410 138.393,113.334 138.106 C 113.259 137.819,113.201 138.125,113.204 138.785 M117.526 139.784 C 116.663 140.737,117.762 142.890,118.883 142.441 C 119.166 142.328,119.143 142.276,118.801 142.259 C 118.228 142.231,117.329 141.300,117.329 140.735 C 117.329 140.514,117.553 140.085,117.826 139.784 C 118.099 139.482,118.255 139.235,118.173 139.235 C 118.090 139.235,117.799 139.482,117.526 139.784 M274.252 140.681 C 273.665 141.123,272.855 141.728,272.451 142.024 C 271.746 142.541,271.756 142.541,272.716 142.024 C 273.664 141.512,275.787 139.850,275.469 139.868 C 275.386 139.872,274.839 140.238,274.252 140.681 M302.931 140.744 C 303.102 141.020,302.357 142.517,301.001 144.625 C 300.739 145.031,300.683 145.266,300.876 145.147 C 301.801 144.577,303.719 140.435,303.058 140.435 C 302.883 140.435,302.826 140.574,302.931 140.744 M298.725 142.130 C 296.785 142.959,296.164 143.351,297.374 142.982 C 298.475 142.646,301.175 141.387,300.825 141.372 C 300.660 141.365,299.715 141.706,298.725 142.130 M120.024 143.130 C 120.457 143.563,120.578 143.989,120.471 144.705 L 120.324 145.686 120.655 144.852 C 120.997 143.990,120.412 142.536,119.723 142.536 C 119.562 142.536,119.697 142.803,120.024 143.130 M268.492 144.055 C 267.543 144.545,266.767 145.013,266.767 145.095 C 266.767 145.178,267.577 144.836,268.567 144.336 C 269.557 143.836,270.368 143.362,270.368 143.282 C 270.368 143.081,270.423 143.058,268.492 144.055 M99.945 143.766 C 99.543 143.926,99.049 143.994,98.847 143.917 C 97.869 143.542,92.651 145.710,92.294 146.640 C 92.219 146.836,92.618 146.725,93.181 146.393 C 93.743 146.060,94.364 145.888,94.560 146.009 C 94.801 146.158,94.837 146.100,94.671 145.832 C 94.491 145.541,94.563 145.487,94.940 145.632 C 95.228 145.742,95.379 145.707,95.283 145.551 C 95.188 145.398,95.350 145.279,95.642 145.288 C 95.935 145.296,97.242 145.018,98.548 144.669 C 99.853 144.321,101.406 144.027,101.998 144.015 C 102.874 143.998,102.963 143.946,102.476 143.736 C 101.686 143.397,100.843 143.407,99.945 143.766 M103.826 144.021 C 104.576 144.276,106.438 144.435,106.202 144.224 C 106.133 144.163,105.401 144.035,104.576 143.940 C 103.564 143.823,103.320 143.849,103.826 144.021 M117.479 144.186 C 117.809 144.457,118.046 144.804,118.005 144.957 C 117.963 145.111,118.132 145.236,118.380 145.236 C 119.120 145.236,118.892 144.800,117.854 144.229 C 117.069 143.798,116.996 143.789,117.479 144.186 M291.373 145.055 C 290.465 145.422,289.467 145.818,289.154 145.936 C 288.842 146.054,288.652 146.216,288.732 146.296 C 288.869 146.433,293.120 144.790,293.429 144.480 C 293.710 144.200,293.003 144.397,291.373 145.055 M108.327 144.936 C 108.740 145.068,109.347 145.176,109.677 145.176 C 110.153 145.176,110.121 145.126,109.527 144.936 C 109.115 144.804,108.507 144.696,108.177 144.696 C 107.702 144.696,107.733 144.746,108.327 144.936 M113.053 145.753 C 113.590 145.820,114.467 145.820,115.004 145.753 C 115.540 145.687,115.101 145.632,114.029 145.632 C 112.956 145.632,112.517 145.687,113.053 145.753 M263.881 146.786 C 262.242 148.017,260.715 149.589,260.286 150.488 C 260.050 150.983,260.027 151.118,260.236 150.788 C 260.759 149.960,263.125 147.593,264.216 146.805 C 264.711 146.448,265.033 146.151,264.932 146.146 C 264.830 146.141,264.358 146.429,263.881 146.786 M299.314 147.562 C 297.313 151.047,297.257 151.158,297.888 150.391 C 298.551 149.583,300.484 146.137,300.274 146.137 C 300.196 146.137,299.764 146.778,299.314 147.562 M287.020 147.039 C 286.918 147.205,287.011 147.397,287.228 147.466 C 287.992 147.708,293.316 147.857,292.723 147.619 C 292.393 147.487,291.144 147.370,289.947 147.358 C 288.711 147.346,287.772 147.207,287.772 147.037 C 287.772 146.647,287.261 146.649,287.020 147.039 M325.431 148.288 C 319.155 149.476,313.578 155.757,313.578 161.638 L 313.578 162.972 315.154 162.881 L 316.729 162.791 316.918 161.247 C 318.477 148.469,337.527 148.377,339.310 161.140 L 339.541 162.791 341.113 162.881 L 342.686 162.972 342.682 161.831 C 342.656 153.601,333.858 146.693,325.431 148.288 M295.060 151.688 C 295.062 152.513,295.120 152.815,295.189 152.359 C 295.258 151.903,295.256 151.228,295.185 150.859 C 295.114 150.490,295.057 150.863,295.060 151.688 M348.087 155.895 C 348.087 156.019,348.952 157.283,350.009 158.705 C 353.630 163.578,357.790 171.154,358.928 174.952 C 359.522 176.937,360.823 176.717,362.224 174.394 C 365.222 169.420,360.977 160.917,353.759 157.437 C 351.173 156.191,348.087 155.352,348.087 155.895 M330.784 160.049 C 329.820 161.281,326.939 164.949,324.381 168.199 C 318.675 175.450,316.279 178.620,316.279 178.922 C 316.279 179.049,320.904 179.117,326.557 179.074 L 336.834 178.995 336.834 176.894 L 336.834 174.794 330.899 174.712 L 324.964 174.631 326.983 172.012 C 328.093 170.571,330.098 167.974,331.437 166.242 C 332.777 164.509,334.302 162.460,334.827 161.689 L 335.780 160.287 334.507 159.308 C 333.806 158.769,333.076 158.212,332.884 158.069 C 332.649 157.894,331.963 158.541,330.784 160.049 M258.064 159.065 C 258.064 159.299,257.657 160.368,257.159 161.440 C 256.594 162.656,256.464 163.123,256.813 162.679 C 257.489 161.818,258.509 159.084,258.250 158.825 C 258.148 158.723,258.064 158.831,258.064 159.065 M100.500 160.649 C 100.900 161.141,102.026 161.885,102.026 161.657 C 102.026 161.600,101.587 161.232,101.050 160.839 C 100.447 160.397,100.237 160.325,100.500 160.649 M233.581 163.954 C 233.494 164.181,233.474 165.025,233.536 165.830 L 233.650 167.292 233.704 165.581 L 233.758 163.871 235.484 163.763 L 237.209 163.654 235.474 163.598 C 234.237 163.557,233.694 163.659,233.581 163.954 M254.650 165.566 C 254.244 166.201,253.840 167.410,253.726 168.337 C 253.465 170.460,253.797 170.144,254.158 167.924 C 254.310 166.989,254.721 165.823,255.070 165.333 C 255.419 164.842,255.630 164.441,255.539 164.441 C 255.447 164.441,255.047 164.947,254.650 165.566 M284.576 169.542 C 284.576 170.945,284.628 171.519,284.691 170.818 C 284.754 170.116,284.754 168.968,284.691 168.267 C 284.628 167.566,284.576 168.140,284.576 169.542 M231.656 167.725 C 231.408 167.871,229.965 168.281,228.450 168.636 C 226.935 168.992,225.536 169.476,225.339 169.713 C 225.030 170.086,225.119 170.085,226.013 169.712 C 226.579 169.476,227.954 169.070,229.068 168.812 C 230.888 168.390,233.165 167.470,232.408 167.463 C 232.243 167.461,231.905 167.579,231.656 167.725 M223.814 170.721 C 223.356 171.096,223.212 171.397,223.406 171.573 C 223.755 171.890,230.138 173.263,230.338 173.063 C 230.478 172.923,224.760 171.643,223.995 171.643 C 223.351 171.643,223.460 171.183,224.231 170.645 C 224.602 170.386,224.820 170.167,224.714 170.158 C 224.609 170.150,224.204 170.403,223.814 170.721 M204.126 173.064 C 204.910 173.126,206.193 173.126,206.977 173.064 C 207.761 173.002,207.119 172.951,205.551 172.951 C 203.983 172.951,203.342 173.002,204.126 173.064 M88.456 173.580 C 91.310 174.180,93.405 175.052,95.774 176.628 L 97.787 177.966 97.058 179.530 C 94.742 184.506,98.642 191.131,103.895 191.145 C 106.969 191.153,104.953 202.236,100.980 207.174 L 100.278 208.045 99.126 207.474 C 94.374 205.114,88.658 207.917,87.301 213.273 L 86.787 215.304 83.378 215.267 C 79.356 215.223,76.556 214.457,73.260 212.499 C 70.504 210.861,70.346 210.642,71.023 209.399 C 73.544 204.770,69.530 197.466,64.459 197.452 C 63.017 197.448,62.914 197.228,62.936 194.173 C 62.967 189.865,64.473 185.177,66.869 181.934 L 67.801 180.672 69.234 181.314 C 73.952 183.427,79.531 180.585,80.733 175.456 C 80.934 174.597,81.233 173.725,81.396 173.518 C 81.809 172.998,85.860 173.033,88.456 173.580 M202.365 174.194 C 202.406 175.562,203.511 176.088,204.244 175.086 C 204.505 174.729,204.902 174.612,205.536 174.705 C 206.040 174.779,206.452 174.728,206.452 174.592 C 206.452 174.133,204.342 174.319,204.160 174.794 C 203.778 175.788,202.595 175.318,202.458 174.119 L 202.329 172.993 202.365 174.194 M238.859 174.999 C 239.437 175.164,240.008 175.456,240.130 175.647 C 240.277 175.877,240.352 175.830,240.355 175.506 C 240.358 175.199,240.014 174.950,239.422 174.831 C 238.018 174.550,237.663 174.656,238.859 174.999 M202.373 176.257 C 201.855 177.608,202.392 179.595,203.276 179.595 C 203.757 179.595,204.186 179.423,204.229 179.212 C 204.271 179.002,204.237 178.968,204.154 179.137 C 203.589 180.277,202.551 179.407,202.551 177.794 C 202.551 176.112,203.658 175.286,204.160 176.594 C 204.276 176.898,204.702 177.029,205.467 176.996 L 206.602 176.948 205.551 176.822 C 204.974 176.753,204.393 176.504,204.261 176.270 C 203.954 175.724,202.581 175.715,202.373 176.257 M247.428 178.527 C 247.137 178.848,246.971 179.287,247.057 179.503 C 247.178 179.805,247.220 179.797,247.238 179.468 C 247.251 179.234,247.485 178.795,247.758 178.493 C 248.032 178.191,248.188 177.944,248.105 177.944 C 248.022 177.944,247.718 178.207,247.428 178.527 M238.391 179.770 C 237.906 180.279,236.497 181.372,235.259 182.200 C 232.465 184.069,232.265 184.275,234.310 183.180 C 235.702 182.434,239.904 178.894,239.441 178.858 C 239.348 178.851,238.875 179.261,238.391 179.770 M247.336 180.420 C 247.412 180.626,247.710 181.513,247.999 182.390 C 248.287 183.267,248.576 183.932,248.641 183.867 C 248.793 183.715,247.556 180.045,247.352 180.045 C 247.267 180.045,247.260 180.214,247.336 180.420 M202.285 181.903 C 202.266 182.842,202.352 183.673,202.476 183.750 C 202.599 183.826,202.660 183.260,202.611 182.492 C 202.470 180.301,202.323 180.035,202.285 181.903 M204.126 180.645 C 204.205 180.939,204.656 181.109,205.425 181.133 C 206.552 181.170,206.558 181.166,205.554 181.034 C 204.978 180.958,204.394 180.739,204.256 180.546 C 204.085 180.307,204.044 180.338,204.126 180.645 M323.073 182.677 C 322.997 182.800,323.384 183.845,323.932 184.999 C 325.104 187.463,325.317 187.481,324.231 185.025 C 323.357 183.048,323.320 182.839,323.938 183.352 C 324.190 183.561,324.464 183.663,324.548 183.579 C 324.631 183.496,324.365 183.208,323.956 182.940 C 323.547 182.672,323.150 182.553,323.073 182.677 M230.758 184.741 C 229.352 185.562,227.157 187.493,227.157 187.908 C 227.157 188.039,232.356 188.147,238.710 188.147 C 245.064 188.147,250.263 188.046,250.263 187.922 C 250.263 187.798,245.098 187.734,238.785 187.779 L 227.307 187.860 228.207 186.970 C 228.702 186.480,229.910 185.599,230.890 185.012 C 231.871 184.426,232.546 183.947,232.390 183.949 C 232.235 183.950,231.500 184.307,230.758 184.741 M324.981 184.005 C 324.981 184.094,327.231 186.110,329.981 188.483 C 332.730 190.856,335.499 193.248,336.132 193.797 C 336.766 194.346,337.284 194.726,337.284 194.640 C 337.284 194.555,334.820 192.360,331.808 189.764 C 328.796 187.167,326.028 184.772,325.656 184.442 C 325.285 184.112,324.981 183.915,324.981 184.005 M202.285 186.104 C 202.266 187.043,202.352 187.874,202.476 187.951 C 202.599 188.027,202.660 187.461,202.611 186.693 C 202.470 184.502,202.323 184.236,202.285 186.104 M204.126 184.846 C 204.205 185.140,204.656 185.310,205.425 185.335 C 206.552 185.371,206.558 185.367,205.554 185.235 C 204.978 185.159,204.394 184.940,204.256 184.747 C 204.085 184.508,204.044 184.539,204.126 184.846 M80.551 186.614 C 72.245 190.386,74.926 202.620,84.068 202.665 C 91.616 202.701,95.184 193.609,89.753 188.177 C 87.699 186.124,83.282 185.373,80.551 186.614 M325.295 187.937 C 325.287 188.069,325.497 188.594,325.761 189.105 C 326.238 190.026,326.236 190.032,325.536 189.819 C 322.903 189.020,313.769 189.414,311.628 190.419 C 311.133 190.652,311.011 190.773,311.357 190.689 C 315.691 189.637,320.635 189.361,324.344 189.962 C 326.648 190.336,326.686 190.309,325.916 188.851 C 325.582 188.216,325.302 187.805,325.295 187.937 M202.372 189.163 C 202.284 189.392,202.258 190.168,202.313 190.888 C 202.410 192.156,202.418 192.143,202.557 190.472 C 202.703 188.721,202.660 188.414,202.372 189.163 M204.056 189.122 C 204.052 189.548,204.292 189.638,205.326 189.599 C 206.542 189.554,206.552 189.545,205.554 189.425 C 204.978 189.355,204.406 189.141,204.283 188.948 C 204.137 188.718,204.059 188.778,204.056 189.122 M295.124 190.548 C 295.768 191.208,296.363 191.748,296.446 191.748 C 296.528 191.748,296.068 191.208,295.424 190.548 C 294.779 189.887,294.184 189.347,294.102 189.347 C 294.019 189.347,294.479 189.887,295.124 190.548 M293.923 192.048 C 294.903 193.038,295.773 193.848,295.855 193.848 C 295.938 193.848,295.203 193.038,294.224 192.048 C 293.244 191.058,292.374 190.248,292.292 190.248 C 292.209 190.248,292.944 191.058,293.923 192.048 M204.056 191.973 C 204.059 192.317,204.137 192.377,204.283 192.147 C 204.406 191.955,204.978 191.740,205.554 191.670 C 206.552 191.550,206.542 191.542,205.326 191.496 C 204.292 191.457,204.052 191.547,204.056 191.973 M305.438 192.772 C 303.571 193.730,303.415 193.762,302.897 193.295 C 302.362 192.813,302.362 192.818,302.895 193.460 L 303.444 194.122 305.586 193.050 C 307.879 191.901,308.130 191.747,307.702 191.749 C 307.551 191.750,306.532 192.210,305.438 192.772 M315.679 192.313 C 315.101 192.415,316.910 192.498,319.699 192.498 C 322.502 192.498,324.246 192.405,323.600 192.290 C 322.190 192.040,317.142 192.054,315.679 192.313 M325.092 192.885 C 325.173 193.015,324.641 193.501,323.910 193.963 C 323.179 194.425,322.581 194.872,322.581 194.956 C 322.581 195.039,323.020 194.817,323.556 194.462 C 324.092 194.107,324.835 193.667,325.206 193.484 C 325.985 193.101,326.097 192.648,325.414 192.648 C 325.156 192.648,325.012 192.755,325.092 192.885 M202.373 193.361 C 201.661 195.218,202.988 197.733,204.095 196.625 C 204.262 196.459,204.000 196.405,203.432 196.488 L 202.493 196.626 202.597 194.786 C 202.702 192.915,202.657 192.623,202.373 193.361 M174.830 194.051 C 175.015 194.187,175.484 195.289,175.872 196.498 C 176.260 197.708,176.617 198.582,176.664 198.441 C 176.837 197.922,175.337 194.031,174.922 193.918 C 174.636 193.841,174.606 193.885,174.830 194.051 M306.527 195.301 C 305.371 195.929,304.413 196.636,304.397 196.871 C 304.381 197.107,304.423 197.142,304.489 196.950 C 304.556 196.758,305.649 196.053,306.919 195.384 C 308.188 194.715,309.092 194.165,308.927 194.163 C 308.762 194.160,307.682 194.672,306.527 195.301 M170.293 195.794 C 169.137 196.347,168.327 196.805,168.492 196.812 C 168.657 196.820,169.737 196.370,170.893 195.813 C 172.048 195.256,172.858 194.798,172.693 194.795 C 172.528 194.792,171.448 195.242,170.293 195.794 M337.584 194.822 C 337.584 194.894,338.260 195.565,339.085 196.313 C 339.910 197.062,340.585 197.569,340.585 197.440 C 340.585 197.311,339.910 196.640,339.085 195.949 C 338.260 195.258,337.584 194.751,337.584 194.822 M321.155 195.683 C 319.963 196.447,319.909 196.856,321.005 196.828 C 321.683 196.811,321.729 196.767,321.263 196.584 C 320.743 196.380,320.768 196.307,321.563 195.715 C 322.671 194.889,322.426 194.870,321.155 195.683 M205.234 195.817 C 205.957 195.954,206.139 196.159,206.236 196.942 C 206.351 197.862,206.354 197.858,206.328 196.849 C 206.304 195.886,206.221 195.793,205.326 195.724 C 204.396 195.652,204.392 195.657,205.234 195.817 M324.906 197.066 C 325.443 197.133,326.320 197.133,326.857 197.066 C 327.393 197.000,326.954 196.945,325.881 196.945 C 324.809 196.945,324.370 197.000,324.906 197.066 M202.311 199.025 C 202.401 200.900,202.401 200.900,203.376 200.994 C 203.912 201.046,204.351 200.968,204.351 200.821 C 204.351 200.674,203.933 200.615,203.422 200.690 L 202.493 200.827 202.597 198.987 C 202.654 197.976,202.593 197.148,202.461 197.149 C 202.330 197.149,202.262 197.993,202.311 199.025 M331.513 197.367 C 332.053 197.434,332.863 197.432,333.314 197.364 C 333.765 197.295,333.323 197.241,332.333 197.242 C 331.343 197.244,330.974 197.300,331.513 197.367 M166.051 197.896 C 165.877 198.351,166.509 201.483,166.731 201.261 C 166.797 201.195,166.689 200.435,166.490 199.573 C 166.186 198.255,166.197 197.961,166.560 197.732 C 166.873 197.533,166.886 197.457,166.607 197.454 C 166.396 197.451,166.146 197.650,166.051 197.896 M337.664 197.665 C 338.120 197.734,338.795 197.732,339.164 197.661 C 339.533 197.589,339.160 197.533,338.335 197.535 C 337.509 197.537,337.207 197.596,337.664 197.665 M294.983 198.579 C 294.978 198.788,295.413 199.402,295.949 199.943 C 296.485 200.485,296.638 200.584,296.289 200.164 C 295.940 199.744,295.505 199.130,295.323 198.800 C 295.141 198.470,294.988 198.370,294.983 198.579 M206.227 201.200 C 206.231 201.860,206.292 202.095,206.364 201.722 C 206.436 201.349,206.433 200.809,206.358 200.522 C 206.283 200.235,206.224 200.540,206.227 201.200 M202.451 201.550 C 202.079 201.922,202.230 205.193,202.626 205.353 C 202.926 205.474,202.926 205.509,202.626 205.528 C 202.419 205.541,202.251 205.703,202.251 205.888 C 202.251 206.126,202.379 206.119,202.686 205.863 C 202.930 205.661,203.426 205.587,203.812 205.696 C 204.291 205.832,204.377 205.804,204.092 205.607 C 203.747 205.368,203.747 205.299,204.092 205.166 C 204.317 205.079,204.096 205.029,203.601 205.054 L 202.701 205.101 202.701 203.225 C 202.701 202.193,202.689 201.349,202.676 201.350 C 202.662 201.350,202.561 201.440,202.451 201.550 M178.376 204.216 C 178.764 205.614,180.601 210.782,180.622 210.536 C 180.661 210.082,178.865 204.528,178.526 204.051 C 178.266 203.686,178.238 203.718,178.376 204.216 M206.196 205.307 C 206.155 206.319,206.068 206.424,205.176 206.535 L 204.201 206.656 205.186 206.704 C 206.286 206.757,206.566 206.367,206.369 205.052 C 206.260 204.324,206.235 204.361,206.196 205.307 M168.066 206.752 C 168.043 207.449,168.320 207.728,170.893 209.609 C 172.213 210.574,174.306 212.174,175.544 213.164 C 176.782 214.155,177.457 214.591,177.044 214.134 C 176.632 213.677,174.557 212.001,172.434 210.410 C 170.310 208.819,168.462 207.244,168.327 206.910 C 168.170 206.525,168.075 206.467,168.066 206.752 M205.176 208.769 C 206.022 208.874,206.152 209.005,206.152 209.752 C 206.152 210.500,206.022 210.631,205.176 210.736 C 204.216 210.855,204.218 210.857,205.326 210.905 C 206.447 210.953,206.452 210.948,206.452 209.752 C 206.452 208.557,206.447 208.552,205.326 208.600 C 204.218 208.647,204.216 208.650,205.176 208.769 M202.333 209.752 C 202.309 210.069,202.595 210.203,203.301 210.203 C 204.006 210.203,204.292 210.069,204.269 209.752 C 204.246 209.456,203.916 209.302,203.301 209.302 C 202.686 209.302,202.355 209.456,202.333 209.752 M181.422 213.504 C 181.901 215.412,182.715 217.643,182.730 217.088 C 182.746 216.440,181.583 212.753,181.362 212.753 C 181.292 212.753,181.319 213.091,181.422 213.504 M205.251 212.922 C 205.973 213.058,206.152 213.244,206.152 213.859 C 206.152 214.508,206.082 214.569,205.701 214.254 C 205.356 213.967,205.153 213.962,204.828 214.231 C 204.538 214.472,204.343 214.483,204.210 214.268 C 203.980 213.896,202.653 213.845,202.434 214.199 C 202.351 214.334,202.679 214.387,203.163 214.316 C 203.727 214.233,204.100 214.333,204.201 214.595 C 204.292 214.833,204.764 214.992,205.330 214.975 C 206.826 214.931,206.823 212.943,205.326 212.828 C 204.365 212.754,204.364 212.756,205.251 212.922 M309.823 213.428 C 309.732 213.800,309.696 218.425,309.742 223.706 L 309.827 233.308 311.902 233.398 C 313.799 233.480,313.941 233.446,313.567 232.994 C 313.215 232.571,313.230 232.459,313.668 232.214 C 314.127 231.957,314.179 231.189,314.179 224.591 L 314.179 217.254 318.305 217.232 C 320.574 217.220,324.293 217.229,326.570 217.253 L 330.710 217.295 330.621 215.099 L 330.533 212.903 320.261 212.828 L 309.989 212.753 309.823 213.428 M186.392 215.258 C 185.542 216.119,184.846 216.912,184.846 217.021 C 184.846 217.129,185.546 216.479,186.401 215.575 L 187.955 213.931 189.568 215.518 C 190.454 216.390,191.096 216.881,190.993 216.609 C 190.890 216.336,190.161 215.569,189.371 214.903 L 187.937 213.694 186.392 215.258 M179.058 216.350 C 179.753 217.013,180.493 217.554,180.703 217.554 C 180.913 217.554,180.581 217.212,179.965 216.793 C 179.349 216.375,178.845 215.917,178.845 215.775 C 178.845 215.634,178.608 215.434,178.320 215.332 C 178.031 215.230,178.363 215.688,179.058 216.350 M325.419 215.433 C 325.640 215.792,325.076 216.148,324.676 215.901 C 324.341 215.694,324.561 215.154,324.981 215.154 C 325.127 215.154,325.324 215.279,325.419 215.433 M329.182 216.186 C 329.182 216.424,329.057 216.696,328.903 216.791 C 328.546 217.012,328.187 216.450,328.432 216.054 C 328.708 215.608,329.182 215.691,329.182 216.186 M189.574 218.671 L 188.157 220.087 186.952 218.910 C 186.289 218.262,185.746 217.869,185.746 218.035 C 185.746 218.420,187.628 220.255,188.023 220.255 C 188.186 220.255,188.985 219.580,189.797 218.755 C 190.610 217.929,191.211 217.254,191.133 217.254 C 191.054 217.254,190.353 217.892,189.574 218.671 M204.351 217.554 C 204.351 217.719,203.980 217.869,203.526 217.886 L 202.701 217.918 203.526 218.244 C 203.980 218.424,204.351 218.720,204.351 218.902 C 204.351 219.105,204.760 219.187,205.401 219.112 C 206.331 219.003,206.452 218.890,206.452 218.122 C 206.452 217.330,206.359 217.254,205.401 217.254 C 204.824 217.254,204.351 217.389,204.351 217.554 M202.371 220.928 C 202.403 222.308,203.801 223.057,204.235 221.926 C 204.596 220.984,206.152 221.332,206.152 222.356 C 206.152 223.156,206.052 223.256,205.251 223.256 C 204.756 223.256,204.351 223.121,204.351 222.956 C 204.351 222.791,204.220 222.656,204.060 222.656 C 203.901 222.656,203.847 222.858,203.942 223.106 C 204.390 224.271,206.452 223.655,206.452 222.356 C 206.452 221.062,204.601 220.456,204.160 221.605 C 203.761 222.643,202.592 222.124,202.463 220.853 L 202.342 219.650 202.371 220.928 M318.980 223.664 L 318.980 225.273 320.503 225.453 C 333.221 226.959,333.427 245.681,320.750 247.914 L 318.980 248.226 318.980 249.845 C 318.980 251.689,319.006 251.701,321.741 251.131 C 329.789 249.453,335.312 240.918,333.275 233.308 C 331.613 227.106,325.641 222.056,319.967 222.056 L 318.980 222.056 318.980 223.664 M56.793 222.567 C 56.424 222.638,55.749 222.640,55.293 222.571 C 54.837 222.502,55.139 222.444,55.964 222.441 C 56.789 222.439,57.162 222.496,56.793 222.567 M202.251 224.606 L 202.251 226.557 203.301 226.557 C 204.034 226.557,204.351 226.421,204.351 226.107 C 204.351 225.806,204.651 225.656,205.251 225.656 C 206.052 225.656,206.152 225.756,206.152 226.557 C 206.152 227.357,206.052 227.457,205.251 227.457 C 204.756 227.457,204.351 227.322,204.351 227.157 C 204.351 226.992,203.878 226.857,203.301 226.857 L 202.251 226.857 202.251 228.807 C 202.251 229.880,202.352 230.758,202.476 230.758 C 202.599 230.759,202.655 229.948,202.599 228.958 C 202.499 227.194,202.513 227.157,203.274 227.157 C 203.701 227.157,204.051 227.292,204.051 227.457 C 204.051 227.622,204.599 227.757,205.269 227.757 L 206.488 227.757 206.395 226.632 C 206.291 225.378,204.574 224.727,204.167 225.787 C 203.612 227.233,202.496 226.285,202.599 224.456 C 202.655 223.465,202.599 222.655,202.476 222.655 C 202.352 222.655,202.251 223.533,202.251 224.606 M55.444 226.171 C 54.993 226.239,54.183 226.241,53.644 226.174 C 53.104 226.107,53.473 226.051,54.464 226.049 C 55.454 226.048,55.895 226.102,55.444 226.171 M68.117 228.057 C 67.869 228.217,67.329 228.348,66.917 228.348 C 66.504 228.348,65.964 228.217,65.716 228.057 C 65.396 227.850,65.742 227.766,66.917 227.766 C 68.092 227.766,68.437 227.850,68.117 228.057 M59.115 228.357 C 58.867 228.517,57.719 228.637,56.564 228.623 C 55.060 228.605,54.677 228.529,55.214 228.357 C 56.340 227.996,59.673 227.996,59.115 228.357 M70.218 228.926 C 70.750 229.074,70.837 229.182,70.518 229.296 C 69.863 229.531,67.517 229.241,67.517 228.926 C 67.517 228.617,69.110 228.617,70.218 228.926 M61.744 229.463 C 61.457 229.539,60.917 229.541,60.544 229.470 C 60.170 229.398,60.405 229.336,61.065 229.333 C 61.725 229.330,62.031 229.388,61.744 229.463 M54.239 229.776 C 53.620 229.841,52.607 229.841,51.988 229.776 C 51.369 229.711,51.875 229.658,53.113 229.658 C 54.351 229.658,54.857 229.711,54.239 229.776 M70.017 230.162 C 70.241 230.165,70.220 230.260,69.959 230.425 C 69.449 230.749,68.361 230.491,68.601 230.103 C 68.698 229.945,68.978 229.893,69.222 229.987 C 69.467 230.081,69.824 230.160,70.017 230.162 M204.051 230.308 C 203.793 230.619,203.782 230.758,204.014 230.758 C 204.200 230.758,204.351 230.623,204.351 230.458 C 204.351 230.293,204.756 230.158,205.251 230.158 C 206.052 230.158,206.152 230.258,206.152 231.058 C 206.152 231.858,206.052 231.958,205.251 231.958 C 204.651 231.958,204.351 231.808,204.351 231.508 C 204.351 231.194,204.034 231.058,203.301 231.058 L 202.251 231.058 202.308 233.083 L 202.366 235.109 202.473 233.233 C 202.581 231.322,203.637 230.446,204.167 231.827 C 204.574 232.888,206.291 232.237,206.395 230.983 C 206.498 229.738,204.905 229.279,204.051 230.308 M66.542 230.364 C 66.253 230.440,65.780 230.440,65.491 230.364 C 65.203 230.289,65.439 230.227,66.017 230.227 C 66.594 230.227,66.830 230.289,66.542 230.364 M69.842 232.773 C 69.389 232.842,68.646 232.842,68.192 232.773 C 67.738 232.704,68.110 232.648,69.017 232.648 C 69.925 232.648,70.296 232.704,69.842 232.773 M61.590 233.075 C 61.054 233.142,60.176 233.142,59.640 233.075 C 59.104 233.009,59.542 232.954,60.615 232.954 C 61.688 232.954,62.127 233.009,61.590 233.075 M65.341 233.965 C 65.053 234.041,64.580 234.041,64.291 233.965 C 64.002 233.890,64.239 233.828,64.816 233.828 C 65.394 233.828,65.630 233.890,65.341 233.965 M57.093 234.270 C 56.724 234.341,56.049 234.343,55.593 234.274 C 55.137 234.205,55.439 234.147,56.264 234.144 C 57.089 234.142,57.462 234.199,57.093 234.270 M204.075 234.584 C 204.089 234.897,204.159 234.958,204.250 234.734 C 204.598 233.870,206.152 234.299,206.152 235.259 C 206.152 236.059,206.052 236.159,205.251 236.159 C 204.635 236.159,204.351 236.011,204.351 235.690 C 204.351 235.341,204.100 235.245,203.376 235.315 L 202.401 235.409 202.339 238.335 C 202.306 239.944,202.388 241.260,202.523 241.260 C 202.657 241.260,202.703 240.923,202.624 240.510 C 202.458 239.643,203.838 239.373,204.160 240.210 C 204.601 241.359,206.452 240.753,206.452 239.460 L 206.452 238.260 205.251 238.260 C 204.384 238.260,204.051 238.385,204.051 238.710 C 204.051 238.990,203.768 239.160,203.301 239.160 C 202.584 239.160,202.551 239.080,202.551 237.359 C 202.551 235.524,203.632 234.634,204.167 236.028 C 204.574 237.089,206.291 236.438,206.395 235.184 L 206.488 234.059 205.269 234.059 C 204.300 234.059,204.056 234.166,204.075 234.584 M72.102 234.878 C 71.406 234.941,70.190 234.942,69.401 234.880 C 68.612 234.818,69.182 234.766,70.668 234.765 C 72.153 234.764,72.799 234.815,72.102 234.878 M64.366 235.259 C 64.036 235.401,62.551 235.517,61.065 235.517 C 59.294 235.517,58.571 235.428,58.965 235.259 C 59.295 235.117,60.780 235.001,62.266 235.001 C 64.037 235.001,64.760 235.090,64.366 235.259 M67.292 236.371 C 66.920 236.442,66.313 236.442,65.941 236.371 C 65.570 236.299,65.874 236.241,66.617 236.241 C 67.359 236.241,67.663 236.299,67.292 236.371 M58.443 236.665 C 58.156 236.740,57.616 236.743,57.243 236.671 C 56.870 236.600,57.104 236.538,57.764 236.535 C 58.425 236.531,58.730 236.590,58.443 236.665 M72.093 237.276 C 71.557 237.343,70.679 237.343,70.143 237.276 C 69.606 237.210,70.045 237.155,71.118 237.155 C 72.191 237.155,72.629 237.210,72.093 237.276 M63.091 237.576 C 62.554 237.643,61.677 237.643,61.140 237.576 C 60.604 237.510,61.043 237.455,62.116 237.455 C 63.188 237.455,63.627 237.510,63.091 237.576 M69.167 238.560 C 68.837 238.701,67.419 238.814,66.017 238.809 C 64.304 238.803,63.712 238.721,64.216 238.560 C 65.264 238.224,69.948 238.224,69.167 238.560 M206.152 239.460 C 206.152 240.523,204.547 240.846,204.285 239.835 C 204.056 238.952,204.360 238.560,205.276 238.560 C 206.049 238.560,206.152 238.665,206.152 239.460 M71.943 239.667 C 71.654 239.742,71.182 239.742,70.893 239.667 C 70.604 239.591,70.840 239.529,71.418 239.529 C 71.995 239.529,72.232 239.591,71.943 239.667 M62.944 239.966 C 62.657 240.041,62.117 240.044,61.744 239.972 C 61.371 239.900,61.605 239.839,62.266 239.836 C 62.926 239.832,63.231 239.891,62.944 239.966 M168.942 248.237 C 168.942 248.361,177.797 248.462,188.619 248.462 L 208.296 248.462 208.199 250.985 C 208.146 252.373,208.203 253.445,208.327 253.368 C 208.451 253.291,208.552 252.090,208.552 250.699 L 208.552 248.171 188.747 248.091 C 177.854 248.048,168.942 248.113,168.942 248.237 M127.907 253.872 C 127.041 254.369,126.332 254.853,126.332 254.948 C 126.332 255.128,128.971 253.677,129.467 253.223 C 129.977 252.758,129.513 252.951,127.907 253.872 M122.131 257.176 C 121.223 257.665,120.659 258.064,120.877 258.064 C 121.280 258.065,123.931 256.608,123.931 256.386 C 123.931 256.208,123.926 256.210,122.131 257.176 " stroke="none" fill="#96bcf6" fill-rule="evenodd"></path><path id="path4" d="M266.617 86.348 C 262.896 87.992,261.149 90.197,261.964 92.221 C 262.222 92.860,262.228 92.858,262.247 92.139 C 262.265 91.409,262.271 91.410,263.292 92.400 C 263.989 93.076,264.928 93.561,266.218 93.914 C 268.553 94.551,268.655 94.890,267.385 97.782 C 266.818 99.075,266.484 100.315,266.512 101.026 L 266.557 102.176 266.767 100.825 L 266.977 99.475 267.022 100.615 C 267.061 101.617,267.770 103.526,268.103 103.526 C 270.767 103.526,276.404 101.869,278.726 100.402 L 280.013 99.591 278.836 98.738 C 277.442 97.728,276.713 96.119,276.743 94.117 C 276.823 88.850,271.024 84.401,266.617 86.348 M132.535 130.882 C 131.955 137.595,128.935 143.875,126.107 144.247 C 125.405 144.340,124.831 144.520,124.831 144.648 C 124.831 144.776,124.229 145.501,123.492 146.259 C 121.612 148.193,120.341 148.104,120.325 146.037 C 120.322 145.641,119.785 146.383,118.953 147.933 C 114.616 156.011,112.176 158.702,105.982 162.237 L 103.676 163.553 102.877 162.578 L 102.078 161.602 100.051 163.409 C 96.865 166.249,96.954 167.451,100.618 171.129 C 106.226 176.758,111.378 177.714,121.885 175.074 C 125.196 174.242,128.122 174.140,130.542 174.773 C 131.445 175.008,132.288 175.099,132.416 174.974 C 132.711 174.687,133.208 169.251,133.228 166.092 C 133.264 160.555,134.780 156.974,140.468 148.987 C 145.980 141.249,147.337 138.012,147.337 132.603 C 147.337 129.409,147.887 129.730,141.766 129.352 C 138.971 129.179,135.793 128.957,134.705 128.859 L 132.726 128.681 132.535 130.882 M291.956 149.363 C 281.767 162.207,282.506 179.696,293.738 191.520 L 295.876 193.770 295.425 194.850 C 293.670 199.050,297.682 203.008,301.715 201.055 C 306.574 198.703,303.883 191.228,298.594 192.385 C 297.256 192.677,295.923 191.659,293.251 188.306 C 284.301 177.076,284.411 161.256,293.513 150.318 C 295.079 148.437,295.226 147.636,294.008 147.638 C 293.534 147.639,292.902 148.170,291.956 149.363 M236.560 162.511 C 236.461 162.769,236.532 163.134,236.719 163.321 C 236.967 163.569,237.059 163.570,237.059 163.325 C 237.059 163.141,237.141 162.776,237.241 162.515 C 237.342 162.254,237.270 162.041,237.082 162.041 C 236.894 162.041,236.659 162.252,236.560 162.511 " stroke="none" fill="#ee9713" fill-rule="evenodd"></path></g></svg>