<svg id="svg" version="1.1" xmlns="http://www.w3.org/2000/svg" xmlns:xlink="http://www.w3.org/1999/xlink" width="400" height="300" viewBox="0, 0, 400,300"><g id="svgg"><path id="path0" d="M71.001 25.699 C 69.450 26.256,64.365 27.007,62.142 27.007 L 60.363 27.007 59.884 28.449 C 58.603 32.307,57.248 33.630,54.314 33.887 C 49.754 34.288,50.457 38.321,55.333 39.738 C 57.399 40.339,58.023 41.054,58.046 42.847 L 58.065 44.261 56.877 44.411 L 55.690 44.561 54.631 47.675 L 53.573 50.788 55.002 52.083 C 58.384 55.144,64.804 55.850,65.060 53.188 C 65.113 52.640,65.014 52.213,64.835 52.213 C 64.633 52.213,64.516 51.214,64.516 49.491 C 64.516 46.360,64.664 46.103,66.834 45.457 C 69.735 44.593,73.822 40.510,71.785 40.510 C 70.806 40.510,69.617 39.761,69.617 39.143 C 69.617 38.565,69.828 38.596,70.736 39.310 C 72.047 40.341,73.855 39.158,74.259 37.004 C 74.403 36.237,74.711 35.872,75.596 35.421 C 77.740 34.327,77.714 32.798,75.509 30.326 C 74.559 29.262,73.667 27.882,73.333 26.962 C 72.688 25.182,72.590 25.129,71.001 25.699 M139.535 39.286 L 139.535 48.865 134.059 48.967 C 126.620 49.105,125.777 49.472,123.491 53.563 C 122.466 55.398,122.317 58.505,123.191 59.838 C 123.699 60.614,123.692 60.643,122.845 61.377 C 121.642 62.420,118.073 64.516,117.502 64.516 C 117.242 64.516,117.029 64.649,117.029 64.812 C 117.029 64.975,116.422 65.261,115.679 65.448 C 114.936 65.635,114.329 65.924,114.329 66.091 C 114.329 66.407,117.189 73.941,118.240 76.393 L 118.846 77.808 119.657 77.089 C 120.102 76.693,120.652 76.124,120.879 75.826 C 122.038 74.295,126.171 69.404,128.002 67.398 L 130.083 65.117 134.809 65.117 L 139.535 65.116 139.535 73.613 L 139.535 82.110 138.410 82.736 C 137.418 83.287,133.848 84.479,132.289 84.780 C 131.982 84.839,131.601 84.967,131.443 85.065 C 131.101 85.276,127.527 86.259,124.938 86.854 C 123.924 87.087,122.843 87.423,122.537 87.602 C 122.231 87.780,120.181 88.250,117.982 88.646 C 115.783 89.043,113.904 89.447,113.806 89.545 C 113.573 89.778,113.833 90.541,116.579 97.674 C 117.850 100.975,119.256 104.659,119.705 105.861 C 120.359 107.615,121.841 110.028,121.475 108.744 C 121.381 108.414,124.989 105.377,127.475 103.695 C 128.186 103.213,128.897 102.578,129.055 102.284 C 129.212 101.989,129.981 101.318,130.762 100.793 C 131.544 100.267,132.453 99.582,132.783 99.269 C 133.113 98.957,134.194 98.101,135.184 97.367 C 136.174 96.634,137.218 95.807,137.504 95.531 C 137.790 95.255,138.686 94.544,139.495 93.951 C 140.304 93.358,141.556 92.388,142.276 91.795 C 144.877 89.655,146.270 89.419,152.738 90.021 C 157.699 90.482,166.149 89.608,166.823 88.563 C 166.916 88.420,167.329 88.203,167.742 88.081 C 169.292 87.624,172.144 86.263,173.552 85.309 L 175.011 84.321 184.730 84.321 L 194.449 84.321 194.449 74.719 L 194.449 65.116 199.775 65.099 L 205.101 65.081 207.202 63.947 C 211.929 61.395,212.729 54.589,208.716 51.065 C 206.576 49.187,206.208 49.097,200.075 48.967 L 194.449 48.848 194.449 39.277 L 194.449 29.707 166.992 29.707 L 139.535 29.707 139.535 39.286 M170.874 68.877 C 171.887 69.563,172.863 70.513,173.177 71.118 C 174.606 73.877,174.644 74.076,174.644 78.816 L 174.644 83.421 166.953 83.421 L 159.263 83.421 159.413 78.395 C 159.587 72.546,159.781 71.910,162.024 69.812 C 164.977 67.049,167.740 66.758,170.874 68.877 M266.467 78.829 C 266.467 79.907,266.784 81.318,267.717 84.384 C 268.281 86.239,271.868 86.274,271.868 84.425 C 271.868 84.203,272.071 84.021,272.318 84.021 C 273.004 84.021,272.857 84.769,271.964 85.831 C 271.234 86.699,271.037 86.774,269.848 86.640 L 268.538 86.492 268.741 88.632 C 269.049 91.861,269.118 91.935,271.626 91.688 C 273.547 91.499,273.819 91.544,274.822 92.222 C 277.874 94.284,284.134 94.354,286.279 92.350 C 287.255 91.438,288.366 90.883,288.746 91.118 C 289.405 91.526,288.807 86.953,287.992 85.352 C 286.322 82.073,282.172 79.574,278.770 79.798 C 271.799 80.258,269.589 79.943,267.142 78.143 C 266.472 77.650,266.467 77.655,266.467 78.829 M283.986 80.202 C 288.373 83.056,291.497 89.116,289.598 91.088 C 289.428 91.264,290.285 92.209,291.838 93.560 L 294.353 95.747 295.563 95.129 C 297.060 94.366,298.106 92.822,298.711 90.485 C 299.900 85.898,298.821 84.538,295.680 86.663 C 294.714 87.316,293.352 88.139,292.654 88.490 L 291.384 89.129 290.340 86.929 C 288.517 83.087,286.604 80.931,284.321 80.145 C 283.575 79.888,283.518 79.898,283.986 80.202 M32.755 130.364 C 32.812 130.639,32.993 130.857,33.158 130.849 C 33.604 130.825,33.522 130.154,33.055 129.998 C 32.802 129.914,32.690 130.051,32.755 130.364 M296.306 150.061 C 290.806 155.030,284.868 158.740,282.415 158.740 C 280.901 158.740,278.024 156.713,274.575 153.217 C 271.848 150.452,270.840 149.996,270.495 151.372 C 270.149 152.751,270.919 154.145,273.132 156.145 C 276.966 159.609,274.225 161.566,262.754 163.554 C 257.298 164.500,256.899 165.291,260.135 168.745 C 265.333 174.295,270.353 175.120,277.869 171.659 C 279.602 170.861,281.358 170.060,281.770 169.877 C 282.897 169.380,284.335 168.517,285.437 167.677 C 288.502 165.341,297.335 161.581,301.875 160.679 C 302.453 160.565,303.061 160.366,303.226 160.239 C 303.391 160.111,304.380 159.910,305.425 159.791 C 309.517 159.326,309.888 160.307,302.051 150.861 C 298.865 147.021,299.564 147.118,296.306 150.061 M145.536 224.121 L 145.536 239.090 153.563 239.242 C 163.729 239.434,164.808 239.730,167.971 243.190 C 172.907 248.591,171.032 257.872,164.386 260.940 L 162.491 261.815 154.014 261.908 L 145.536 262.000 145.536 276.986 L 145.536 291.973 186.947 291.973 L 228.357 291.973 228.357 276.969 L 228.357 261.965 220.272 261.965 C 212.280 261.965,212.163 261.956,210.056 261.176 C 202.647 258.429,200.496 248.661,206.040 242.937 C 209.206 239.668,211.212 239.185,221.680 239.170 L 228.357 239.160 228.357 224.156 L 228.357 209.152 213.385 209.152 C 200.010 209.152,198.394 209.203,198.232 209.627 C 198.131 209.888,198.050 213.577,198.050 217.826 C 198.050 226.273,197.896 227.273,196.220 229.736 C 191.361 236.878,180.259 235.933,176.485 228.057 C 175.695 226.409,175.694 226.395,175.602 217.779 L 175.510 209.152 160.523 209.152 L 145.536 209.152 145.536 224.121 " stroke="none" fill="#d4d7ea" fill-rule="evenodd"></path><path id="path1" d="M75.508 9.193 C 74.539 9.599,73.551 10.127,73.311 10.367 C 73.071 10.607,72.749 10.803,72.594 10.803 C 72.145 10.803,66.483 13.265,66.304 13.538 C 66.215 13.674,65.607 13.984,64.954 14.226 C 62.374 15.181,59.255 16.554,58.822 16.927 C 58.570 17.143,57.959 17.464,57.464 17.642 C 55.617 18.303,52.070 19.844,51.182 20.370 C 50.676 20.670,48.845 21.508,47.112 22.232 C 45.379 22.956,43.826 23.666,43.661 23.809 C 43.496 23.952,42.011 24.633,40.360 25.322 C 37.393 26.562,36.338 27.689,37.410 28.475 C 37.547 28.575,37.977 29.614,38.365 30.784 C 39.439 34.022,42.148 38.237,43.979 39.519 C 44.403 39.817,45.173 40.428,45.690 40.878 C 46.864 41.900,49.230 43.032,51.513 43.664 C 52.476 43.930,53.545 44.286,53.889 44.454 C 54.318 44.663,55.069 44.657,56.270 44.435 C 57.235 44.257,58.085 44.111,58.159 44.111 C 58.233 44.111,58.220 43.566,58.131 42.899 C 57.889 41.092,57.259 40.343,55.638 39.935 C 51.898 38.993,50.529 37.194,51.752 34.829 C 52.242 33.882,53.207 33.522,54.543 33.789 C 56.462 34.173,58.248 32.380,59.562 28.752 L 60.240 26.881 61.553 26.958 C 63.264 27.058,69.072 26.233,70.886 25.632 C 71.666 25.374,72.417 25.232,72.555 25.317 C 73.162 25.693,78.020 21.442,78.020 20.535 C 78.020 20.322,78.227 19.940,78.481 19.687 C 80.093 18.074,80.875 9.602,79.411 9.602 C 79.104 9.602,79.020 10.331,79.041 12.803 C 79.062 15.118,78.966 16.039,78.695 16.129 C 78.488 16.198,78.315 16.479,78.309 16.754 C 78.303 17.029,78.092 17.592,77.840 18.005 L 77.382 18.755 77.585 18.005 C 77.697 17.592,77.855 15.263,77.937 12.828 C 78.105 7.799,78.264 8.037,75.508 9.193 M73.096 39.160 C 72.539 40.009,71.532 40.137,70.650 39.469 C 69.913 38.912,69.592 38.893,69.793 39.419 C 70.434 41.088,74.419 40.606,74.419 38.860 C 74.419 38.155,73.638 38.332,73.096 39.160 M279.174 58.531 C 277.197 58.877,274.430 59.909,273.959 60.476 C 273.759 60.718,273.485 60.915,273.351 60.915 C 272.613 60.915,267.809 65.792,266.179 68.196 C 263.235 72.538,263.426 79.955,266.554 82.741 C 267.134 83.258,267.144 83.249,266.987 82.371 C 266.898 81.875,266.671 80.610,266.483 79.557 C 266.090 77.358,266.205 77.075,267.143 77.933 C 269.062 79.688,272.224 80.381,276.010 79.876 C 279.820 79.369,280.348 79.413,282.575 80.423 C 286.612 82.254,288.833 85.164,289.190 89.091 C 289.363 90.999,289.876 91.648,289.868 89.947 C 289.851 86.558,288.062 83.172,285.338 81.379 C 282.287 79.369,282.406 79.475,283.421 79.680 C 285.989 80.197,288.559 82.846,290.325 86.798 C 291.425 89.258,291.512 89.266,294.708 87.177 C 296.092 86.273,297.449 85.530,297.724 85.527 C 297.999 85.524,298.270 85.403,298.325 85.258 C 298.380 85.113,299.118 84.404,299.966 83.683 C 301.935 82.006,305.232 78.040,306.131 76.267 C 306.514 75.513,307.198 74.289,307.652 73.548 C 308.106 72.807,308.477 71.957,308.477 71.659 C 308.477 71.361,308.680 71.118,308.927 71.118 C 310.499 71.118,307.647 67.833,305.530 67.206 C 304.923 67.026,302.941 66.805,301.125 66.715 C 296.975 66.509,296.706 66.369,291.280 61.583 C 288.234 58.896,283.667 57.745,279.174 58.531 M304.619 68.435 C 305.219 68.632,306.097 69.105,306.569 69.488 C 307.313 70.091,307.193 70.066,305.659 69.300 C 304.687 68.814,303.640 68.417,303.334 68.417 C 303.027 68.417,302.776 68.271,302.776 68.092 C 302.776 67.913,302.944 67.837,303.151 67.922 C 303.357 68.008,304.018 68.239,304.619 68.435 M310.750 83.588 C 307.238 84.066,302.988 84.941,302.776 85.230 C 302.693 85.343,301.925 85.600,301.069 85.803 L 299.512 86.173 299.322 87.872 C 298.892 91.740,297.456 94.444,295.371 95.315 C 294.079 95.855,294.249 96.200,297.633 99.900 C 298.023 100.326,298.760 101.283,299.271 102.026 C 299.782 102.768,300.625 103.815,301.143 104.351 C 302.091 105.331,303.983 111.627,303.978 113.786 C 303.977 114.230,304.111 114.677,304.276 114.779 C 304.643 115.005,304.679 120.397,304.317 120.795 C 304.174 120.952,303.910 121.692,303.729 122.440 C 303.210 124.585,302.278 126.445,301.210 127.466 C 298.990 129.587,298.035 130.363,296.249 131.497 C 295.218 132.151,294.374 132.800,294.374 132.938 C 294.374 133.076,294.205 133.233,293.998 133.286 C 293.414 133.437,284.171 139.637,284.171 139.878 C 284.171 139.996,285.291 141.688,286.659 143.639 C 288.027 145.590,290.005 148.432,291.054 149.953 C 292.343 151.823,293.085 152.649,293.345 152.504 C 293.556 152.385,294.961 151.158,296.467 149.777 C 297.973 148.396,299.249 147.316,299.303 147.377 C 301.352 149.665,308.634 158.830,308.976 159.551 C 309.240 160.106,309.871 160.994,310.378 161.525 C 310.886 162.056,311.858 163.233,312.538 164.141 C 313.217 165.049,314.579 166.602,315.564 167.592 C 316.549 168.582,318.272 170.506,319.393 171.868 C 321.730 174.706,321.663 174.687,324.500 173.305 C 329.488 170.874,332.882 166.733,334.731 160.817 C 337.176 152.998,339.020 149.398,342.639 145.375 C 348.013 139.403,349.571 132.509,347.162 125.358 C 346.570 123.600,346.563 123.468,347.050 123.184 C 353.628 119.338,370.593 104.581,370.593 102.705 C 370.593 99.614,366.477 94.219,362.941 92.673 C 362.446 92.457,361.879 92.126,361.681 91.939 C 360.998 91.290,356.622 90.332,351.657 89.745 C 346.438 89.128,345.035 88.875,344.786 88.509 C 344.704 88.387,343.961 88.076,343.136 87.818 C 340.470 86.983,336.259 85.510,335.334 85.089 C 331.602 83.389,318.213 82.572,310.750 83.588 M271.775 84.986 C 271.272 85.862,271.183 85.895,269.758 85.726 C 268.485 85.575,268.267 85.624,268.268 86.061 C 268.269 87.305,271.608 86.595,272.331 85.196 C 272.930 84.039,272.428 83.849,271.775 84.986 M69.413 123.785 C 65.008 125.174,55.751 125.833,42.667 125.689 L 32.799 125.581 32.946 127.682 C 33.026 128.837,33.223 129.867,33.382 129.970 C 33.542 130.073,33.581 130.445,33.470 130.796 C 33.248 131.497,33.775 135.728,34.204 136.684 C 34.352 137.014,34.689 138.297,34.953 139.535 C 35.640 142.752,37.239 148.360,37.521 148.540 C 37.653 148.624,38.456 151.392,39.307 154.691 C 40.157 157.991,40.975 160.960,41.123 161.290 C 43.038 165.538,42.936 176.851,40.953 180.235 C 40.548 180.925,39.657 182.616,38.973 183.993 C 38.288 185.370,37.626 186.564,37.502 186.647 C 37.377 186.729,36.648 188.687,35.881 190.998 C 35.114 193.308,34.363 195.424,34.211 195.699 C 32.642 198.542,31.468 207.281,31.575 215.326 L 31.658 221.605 30.103 224.456 C 29.248 226.024,28.312 227.914,28.023 228.657 C 27.735 229.400,27.408 230.075,27.298 230.158 C 27.065 230.332,26.263 233.669,25.795 236.413 C 24.750 242.528,25.015 259.239,26.286 267.446 L 26.461 268.575 36.083 268.496 L 45.705 268.417 46.592 266.017 C 47.080 264.696,47.547 263.312,47.630 262.941 C 47.714 262.569,47.888 262.266,48.017 262.266 C 48.146 262.266,48.885 260.544,49.660 258.440 C 50.434 256.335,51.185 254.471,51.328 254.298 C 51.471 254.124,52.126 252.482,52.782 250.650 C 53.438 248.817,54.389 246.433,54.895 245.352 C 55.400 244.271,55.825 243.211,55.838 242.998 C 55.852 242.785,56.191 244.343,56.593 246.461 C 58.054 254.172,61.867 261.283,67.747 267.265 L 69.028 268.567 78.625 268.567 L 88.222 268.567 88.261 262.641 C 88.282 259.381,88.411 251.920,88.547 246.062 C 89.293 213.924,89.430 203.768,89.336 187.547 C 89.265 175.296,89.126 169.410,88.895 168.792 C 88.709 168.297,88.268 165.866,87.916 163.391 C 87.185 158.264,85.823 151.161,85.527 150.938 C 85.350 150.804,84.805 148.430,82.771 138.935 C 82.435 137.367,82.058 135.949,81.933 135.784 C 81.808 135.619,81.252 133.337,80.697 130.712 C 79.539 125.242,79.565 125.284,77.169 125.034 C 76.181 124.930,74.466 124.505,73.359 124.088 C 71.101 123.238,71.140 123.241,69.413 123.785 " stroke="none" fill="#212867" fill-rule="evenodd"></path><path id="path2" d="M259.620 112.528 C 257.777 113.848,256.191 114.929,256.096 114.929 C 256.000 114.929,255.281 115.469,254.498 116.129 C 253.715 116.789,252.948 117.332,252.794 117.335 C 252.639 117.339,251.433 118.146,250.113 119.130 C 248.792 120.113,247.592 120.921,247.446 120.924 C 247.178 120.930,245.761 119.524,245.761 119.251 C 245.761 119.008,243.267 115.441,241.723 113.475 C 237.962 108.688,229.852 109.661,227.547 115.176 C 226.396 117.931,226.983 122.290,228.764 124.211 C 229.157 124.635,229.954 125.724,230.535 126.632 C 231.117 127.539,232.020 128.850,232.541 129.544 L 233.490 130.805 232.199 131.616 C 231.489 132.062,230.638 132.670,230.308 132.966 C 229.977 133.263,228.560 134.277,227.157 135.219 C 225.754 136.160,223.661 137.590,222.506 138.395 C 221.350 139.200,219.932 140.185,219.355 140.585 C 216.869 142.302,217.033 142.050,217.669 143.181 C 217.980 143.734,218.398 144.321,218.599 144.486 C 218.799 144.651,219.596 145.731,220.369 146.887 C 223.177 151.083,225.039 153.774,225.541 154.360 C 225.823 154.690,226.580 155.798,227.223 156.824 C 227.866 157.850,228.576 158.760,228.801 158.846 C 229.246 159.017,231.958 157.354,231.958 156.911 C 231.958 156.761,232.089 156.639,232.249 156.639 C 232.530 156.639,237.054 153.697,237.359 153.315 C 239.655 150.449,246.880 153.022,248.308 157.215 C 249.806 161.610,248.291 164.377,242.161 168.441 C 241.088 169.152,240.005 169.940,239.754 170.191 C 239.503 170.442,238.996 170.809,238.628 171.006 C 237.753 171.475,237.781 172.263,238.710 173.265 C 239.122 173.710,239.460 174.151,239.460 174.244 C 239.460 174.337,239.932 175.057,240.510 175.844 C 241.088 176.631,241.562 177.392,241.565 177.535 C 241.568 177.678,242.106 178.402,242.761 179.145 C 243.416 179.887,243.954 180.592,243.956 180.711 C 243.964 181.074,245.860 183.646,246.119 183.646 C 246.253 183.646,246.362 183.783,246.362 183.951 C 246.362 184.118,246.999 185.199,247.778 186.351 C 249.223 188.490,249.858 188.849,250.601 187.948 C 250.827 187.674,251.958 186.847,253.113 186.110 C 254.269 185.373,255.416 184.578,255.664 184.343 C 255.911 184.108,257.127 183.242,258.365 182.418 C 259.602 181.595,261.754 180.140,263.146 179.185 L 265.677 177.450 266.475 178.372 C 266.913 178.880,267.783 180.105,268.407 181.095 C 269.031 182.086,269.731 183.098,269.963 183.346 C 270.195 183.593,270.770 184.347,271.242 185.021 C 271.713 185.694,272.620 186.490,273.258 186.790 C 273.897 187.090,274.514 187.483,274.631 187.663 C 275.092 188.375,279.518 188.265,281.043 187.504 C 284.751 185.651,286.148 183.259,285.911 179.165 C 285.777 176.851,284.651 174.044,283.858 174.044 C 283.700 174.044,283.571 173.897,283.571 173.718 C 283.571 173.291,281.389 170.151,281.089 170.146 C 280.962 170.144,279.678 170.735,278.235 171.460 C 270.842 175.173,265.389 174.355,260.135 168.745 C 256.899 165.291,257.298 164.500,262.754 163.554 C 268.593 162.542,271.198 161.756,273.603 160.279 C 275.691 158.997,275.622 158.395,273.132 156.145 C 270.919 154.145,270.149 152.751,270.495 151.372 C 270.840 149.996,271.848 150.452,274.575 153.217 C 281.144 159.877,283.516 160.062,290.957 154.497 C 292.939 153.015,293.779 152.317,293.292 152.556 C 293.110 152.646,292.103 151.475,291.054 149.953 C 290.005 148.432,288.027 145.590,286.659 143.639 C 285.291 141.688,284.171 139.996,284.171 139.878 C 284.171 139.760,286.234 138.301,288.756 136.635 C 294.733 132.687,295.924 130.900,295.375 126.700 C 294.437 119.530,287.026 117.579,279.927 122.634 C 278.548 123.616,276.914 124.749,276.296 125.151 C 275.678 125.553,275.171 126.017,275.170 126.182 C 275.168 126.347,274.879 126.009,274.527 125.431 C 274.175 124.854,273.642 124.111,273.344 123.781 C 272.853 123.237,271.700 121.576,268.141 116.279 C 267.476 115.289,266.680 114.209,266.373 113.878 C 266.066 113.548,265.559 112.806,265.247 112.228 C 263.795 109.539,263.792 109.539,259.620 112.528 M26.315 268.792 C 26.245 268.916,25.746 270.368,25.207 272.018 C 24.667 273.668,24.127 275.154,24.006 275.319 C 23.885 275.484,23.075 277.779,22.206 280.420 C 21.336 283.061,20.521 285.356,20.394 285.521 C 20.198 285.776,18.005 292.151,18.005 292.465 C 18.005 292.524,41.230 292.573,69.617 292.573 C 114.158 292.573,121.230 292.514,121.230 292.144 C 121.230 291.724,117.716 287.476,117.361 287.467 C 117.261 287.465,116.572 286.924,115.829 286.267 C 115.086 285.609,113.909 284.791,113.212 284.448 C 112.515 284.106,111.498 283.522,110.952 283.152 C 110.406 282.781,108.722 281.965,107.210 281.338 C 105.697 280.712,104.216 280.007,103.918 279.773 C 103.620 279.539,102.251 278.691,100.876 277.888 C 99.501 277.085,98.083 276.161,97.725 275.835 C 97.367 275.510,96.467 274.866,95.724 274.406 C 94.423 273.599,93.112 272.559,89.975 269.842 L 88.502 268.567 78.902 268.567 L 69.302 268.567 69.008 269.392 C 68.846 269.846,68.535 270.555,68.317 270.968 C 68.099 271.380,67.256 273.778,66.443 276.297 C 65.429 279.442,64.808 280.926,64.460 281.037 C 63.381 281.382,54.056 275.659,50.229 272.304 C 49.550 271.709,48.605 270.980,48.129 270.685 C 47.652 270.389,46.934 269.792,46.534 269.357 L 45.807 268.567 36.124 268.567 C 30.799 268.567,26.385 268.668,26.315 268.792 " stroke="none" fill="#e94a44" fill-rule="evenodd"></path><path id="path3" d="M360.641 112.685 C 355.941 117.053,350.974 120.889,347.050 123.184 C 346.563 123.468,346.570 123.600,347.162 125.358 C 349.571 132.509,348.013 139.403,342.639 145.375 C 339.020 149.398,337.176 152.998,334.731 160.817 C 332.882 166.733,329.488 170.874,324.500 173.305 C 321.619 174.708,321.756 174.759,318.823 171.193 C 317.397 169.460,316.131 168.042,316.009 168.042 C 315.676 168.042,313.439 172.079,312.359 174.629 C 311.838 175.859,311.233 177.142,311.014 177.480 C 310.607 178.107,308.177 185.210,308.177 185.771 C 308.177 185.940,307.920 186.646,307.605 187.338 C 307.290 188.031,306.462 190.555,305.764 192.948 C 305.066 195.341,304.397 197.434,304.278 197.599 C 304.158 197.764,303.627 199.317,303.098 201.050 C 302.569 202.783,301.799 205.214,301.387 206.452 C 300.975 207.689,299.970 210.863,299.152 213.503 C 298.335 216.144,297.539 218.530,297.383 218.805 C 297.227 219.081,296.418 221.566,295.585 224.328 C 294.752 227.090,293.955 229.497,293.814 229.678 C 293.576 229.983,291.888 235.440,291.066 238.560 C 290.871 239.302,290.609 239.977,290.486 240.060 C 290.362 240.143,289.614 242.371,288.823 245.011 C 288.032 247.652,287.220 250.150,287.018 250.563 C 286.817 250.975,286.073 253.271,285.366 255.664 C 284.659 258.057,283.917 260.285,283.718 260.615 C 283.518 260.945,282.697 263.443,281.893 266.167 C 281.089 268.890,280.362 271.185,280.276 271.268 C 279.768 271.756,279.272 272.552,279.596 272.357 C 279.803 272.233,283.602 272.143,288.038 272.158 L 296.104 272.185 298.433 269.851 C 300.961 267.318,305.258 262.312,306.593 260.344 C 307.052 259.668,307.663 258.853,307.951 258.534 C 308.586 257.830,309.498 255.454,310.309 252.387 C 310.640 251.136,311.036 249.842,311.189 249.512 C 311.343 249.182,311.810 247.306,312.227 245.343 C 313.284 240.378,313.781 238.770,315.114 236.009 C 317.013 232.077,317.525 231.385,321.597 227.243 C 325.305 223.472,327.982 219.553,327.982 217.895 C 327.982 217.708,328.087 217.554,328.216 217.554 C 328.484 217.554,328.774 216.842,330.291 212.453 C 330.891 210.720,331.474 209.235,331.587 209.152 C 331.700 209.070,331.926 208.597,332.090 208.102 C 332.298 207.468,332.438 211.286,332.562 221.005 C 332.710 232.540,333.674 271.878,333.814 272.080 C 333.837 272.114,337.483 272.160,341.915 272.183 L 349.973 272.224 351.193 270.921 C 352.687 269.323,354.989 266.436,354.989 266.158 C 354.989 266.046,355.311 265.606,355.706 265.180 C 356.481 264.344,358.590 260.120,358.590 259.403 C 358.590 259.162,358.714 258.965,358.866 258.965 C 360.022 258.965,361.710 248.624,362.073 239.310 C 362.182 236.504,362.370 234.074,362.490 233.908 C 362.611 233.743,362.790 231.448,362.890 228.807 C 363.123 222.589,363.532 219.002,364.613 213.667 C 365.096 211.281,365.491 208.911,365.491 208.400 C 365.491 207.890,365.635 207.329,365.809 207.154 C 366.168 206.795,366.024 199.252,365.502 191.148 C 365.185 186.206,365.341 179.748,365.800 178.863 C 365.933 178.605,366.204 177.382,366.402 176.144 C 366.917 172.919,368.404 166.125,369.095 163.841 C 370.151 160.347,372.393 149.146,372.393 147.361 C 372.393 146.918,372.553 146.397,372.748 146.202 C 373.251 145.699,373.251 133.469,372.748 133.302 C 372.553 133.236,372.393 132.777,372.393 132.280 C 372.393 129.633,370.429 122.166,368.934 119.130 C 368.405 118.057,367.531 116.268,366.991 115.154 C 366.451 114.040,365.899 113.128,365.764 113.128 C 365.630 113.128,365.301 112.668,365.034 112.105 C 363.925 109.768,363.757 109.791,360.641 112.685 M61.890 125.038 C 62.179 125.114,62.652 125.114,62.941 125.038 C 63.230 124.963,62.993 124.901,62.416 124.901 C 61.838 124.901,61.602 124.963,61.890 125.038 M58.590 125.338 C 58.878 125.414,59.351 125.414,59.640 125.338 C 59.929 125.263,59.692 125.201,59.115 125.201 C 58.537 125.201,58.301 125.263,58.590 125.338 M36.088 125.647 C 36.544 125.716,37.219 125.714,37.589 125.643 C 37.958 125.571,37.584 125.515,36.759 125.517 C 35.934 125.519,35.632 125.578,36.088 125.647 M53.638 125.643 C 54.010 125.715,54.617 125.715,54.989 125.643 C 55.360 125.572,55.056 125.513,54.314 125.513 C 53.571 125.513,53.267 125.572,53.638 125.643 " stroke="none" fill="#3d89f9" fill-rule="evenodd"></path><path id="path4" d="M52.835 50.691 C 52.462 51.064,51.666 51.702,51.066 52.109 C 47.629 54.442,40.253 61.844,38.527 64.693 C 38.180 65.267,37.624 66.036,37.293 66.402 C 34.320 69.684,29.628 79.276,28.213 84.963 C 27.869 86.343,27.474 87.742,27.334 88.072 C 27.194 88.402,26.651 90.023,26.128 91.673 C 25.595 93.352,24.401 96.061,23.414 97.824 C 22.445 99.557,21.405 101.515,21.103 102.176 C 20.802 102.836,20.478 103.443,20.384 103.526 C 20.290 103.608,19.869 104.554,19.449 105.626 C 16.952 112.000,17.344 118.448,20.510 123.068 L 21.821 124.981 24.789 125.168 C 41.433 126.213,58.994 125.702,68.180 123.907 L 71.393 123.279 73.069 123.906 C 77.386 125.521,81.048 125.722,86.494 124.644 C 91.955 123.563,104.531 124.413,107.527 126.065 C 108.135 126.400,112.714 126.368,113.428 126.024 C 113.676 125.904,114.891 125.570,116.129 125.281 C 118.591 124.706,122.131 123.235,122.131 122.786 C 122.131 122.631,122.502 122.346,122.956 122.153 C 124.069 121.681,125.431 120.458,125.431 119.930 C 125.431 119.430,123.403 113.741,123.063 113.286 C 122.936 113.117,122.524 112.101,122.147 111.028 C 121.771 109.955,121.231 108.807,120.947 108.477 C 120.664 108.147,120.085 106.932,119.660 105.776 C 119.235 104.621,117.848 100.975,116.578 97.674 C 113.828 90.527,113.573 89.778,113.808 89.543 C 113.907 89.444,115.854 89.025,118.134 88.611 C 120.415 88.198,122.402 87.745,122.552 87.605 C 122.861 87.313,120.972 81.674,119.792 79.370 C 119.370 78.545,118.725 77.262,118.359 76.519 C 117.506 74.790,114.329 66.512,114.329 66.021 C 114.329 65.753,114.119 65.785,113.589 66.132 C 113.182 66.399,112.659 66.617,112.426 66.617 C 112.194 66.617,110.805 67.101,109.340 67.694 C 92.345 74.566,70.904 68.945,66.162 56.373 C 65.703 55.158,65.309 54.136,65.286 54.102 C 65.262 54.068,64.641 54.249,63.904 54.504 C 60.838 55.565,54.699 53.219,53.737 50.616 C 53.516 50.022,53.503 50.023,52.835 50.691 M266.201 78.095 C 266.228 78.608,266.269 78.643,266.374 78.241 C 266.450 77.950,266.658 77.802,266.836 77.912 C 267.028 78.031,267.073 77.972,266.945 77.766 C 266.589 77.189,266.164 77.377,266.201 78.095 M288.996 89.797 C 288.983 90.581,289.080 91.223,289.212 91.223 C 289.344 91.223,289.402 90.716,289.340 90.098 C 289.168 88.355,289.022 88.229,288.996 89.797 M278.533 273.306 C 277.755 274.015,276.755 274.791,276.309 275.032 C 275.863 275.272,275.391 275.656,275.259 275.884 C 274.759 276.749,268.298 280.753,263.535 283.148 C 260.809 284.519,258.227 285.968,257.797 286.367 C 257.366 286.767,256.635 287.335,256.171 287.629 C 255.181 288.258,252.601 291.511,252.875 291.785 C 253.156 292.066,302.476 292.012,302.476 291.731 C 302.476 291.319,301.192 287.631,300.993 287.472 C 300.890 287.389,300.084 285.094,299.203 282.371 C 298.322 279.647,297.506 277.352,297.391 277.269 C 297.275 277.187,296.838 276.039,296.421 274.719 L 295.661 272.318 287.804 272.168 L 279.947 272.018 278.533 273.306 M333.383 272.459 C 333.383 272.618,332.624 273.310,331.697 273.995 C 330.769 274.681,329.778 275.474,329.493 275.758 C 328.556 276.696,322.766 280.509,320.796 281.486 C 319.732 282.014,318.676 282.632,318.449 282.858 C 318.222 283.085,317.840 283.271,317.600 283.271 C 315.404 283.271,306.677 290.004,306.677 291.698 C 306.677 291.862,316.720 291.973,331.583 291.973 C 353.299 291.973,356.489 291.916,356.489 291.532 C 356.489 291.289,356.169 290.378,355.777 289.506 C 355.386 288.635,354.422 285.964,353.636 283.571 C 352.851 281.178,352.109 279.085,351.988 278.920 C 351.867 278.755,351.325 277.269,350.783 275.619 C 350.241 273.968,349.649 272.519,349.468 272.398 C 348.958 272.058,333.383 272.117,333.383 272.459 " stroke="none" fill="#8eb7f6" fill-rule="evenodd"></path></g></svg>