<?xml version="1.0" encoding="iso-8859-1"?>
<!-- Generator: Adobe Illustrator 19.0.0, SVG Export Plug-In . SVG Version: 6.00 Build 0)  -->
<svg version="1.1" id="Layer_1" xmlns="http://www.w3.org/2000/svg" xmlns:xlink="http://www.w3.org/1999/xlink" x="0px" y="0px"
	 viewBox="0 0 200.536 200.536" style="enable-background:new 0 0 200.536 200.536;" xml:space="preserve">
<g>
	<path style="fill:#C9EBF2;" d="M100.27,0c10.976,0,19.93,8.951,19.93,19.929c0,10.981-8.954,19.934-19.93,19.934
		c-10.979,0-19.933-8.953-19.933-19.934C80.337,8.951,89.29,0,100.27,0L100.27,0z M72.191,80.732l-14.72,24.833
		c-2.508,4.347-8.116,5.853-12.463,3.341l0,0c-4.349-2.511-5.851-8.119-3.343-12.465l26.314-45.72
		c3.633-6.294,6.881-5.872,14.345-5.872h5.548l4.082,6.775l4.085,6.775c0.903,1.5,2.355,2.906,4.23,2.894
		c1.779-0.011,3.065-0.963,4.227-2.894l4.085-6.775l4.082-6.775h5.547c7.467,0,10.712-0.422,14.348,5.872l26.312,45.72
		c2.508,4.346,1.006,9.954-3.34,12.465l0,0c-4.346,2.512-9.957,1.006-12.465-3.341l-14.72-24.833l0.026,49.041
		c-0.003,6.07-4.969,11.04-11.04,11.04l0,0c-6.073,0-11.04-4.967-11.04-11.04v-3.813H94.247v62.424c0,6.073-4.967,11.04-11.04,11.04
		l0,0c-6.073,0-11.039-4.97-11.039-11.04L72.191,80.732L72.191,80.732z"/>
	<g>
		<path style="fill:#797364;" d="M48.33,200.536c-0.244,0-0.491-0.023-0.739-0.069c-2.172-0.405-3.603-2.494-3.198-4.666
			L74.157,36.456c0.406-2.172,2.496-3.607,4.666-3.197c2.172,0.405,3.603,2.494,3.198,4.666L52.258,197.27
			C51.899,199.193,50.218,200.536,48.33,200.536z"/>
	</g>
	<g>
		<path style="fill:#797364;" d="M152.059,200.536c-1.888,0-3.568-1.343-3.928-3.267L118.367,37.925
			c-0.405-2.172,1.026-4.261,3.198-4.666c2.169-0.409,4.261,1.025,4.667,3.197l29.764,159.345c0.405,2.172-1.026,4.261-3.198,4.666
			C152.55,200.514,152.302,200.536,152.059,200.536z"/>
	</g>
	<g>
		<path style="fill:#797364;" d="M72.184,109.559c0,1.984-1.609,3.594-3.594,3.594H55.676c-1.985,0-3.594-1.609-3.594-3.594l0,0
			c0-1.984,1.609-3.594,3.594-3.594h12.915C70.575,105.965,72.184,107.574,72.184,109.559L72.184,109.559z"/>
	</g>
	<g>
		<path style="fill:#797364;" d="M147.232,109.559c0,1.984-1.609,3.594-3.594,3.594h-12.914c-1.985,0-3.594-1.609-3.594-3.594l0,0
			c0-1.984,1.609-3.594,3.594-3.594h12.914C145.623,105.965,147.232,107.574,147.232,109.559L147.232,109.559z"/>
	</g>
	<path style="fill:#D6EFFF;" d="M128.368,124.521l-22.076,3.938c0,0-1.194,6.012,4.977,10.523L128.368,124.521z"/>
</g>
<g>
</g>
<g>
</g>
<g>
</g>
<g>
</g>
<g>
</g>
<g>
</g>
<g>
</g>
<g>
</g>
<g>
</g>
<g>
</g>
<g>
</g>
<g>
</g>
<g>
</g>
<g>
</g>
<g>
</g>
</svg>
