<svg id="Capa_1" enable-background="new 0 0 512 512" height="150" viewBox="0 0 512 512" width="150" xmlns="http://www.w3.org/2000/svg"><g><g><path d="m141.798 504.5c-53.809-137.563-42.416-218.924-20.712-268.347 9.405-21.417 29.559-56.903 40.626-113.117 9.385-47.671 7.947-88.462 5.247-115.536-.509-3.979 2.591-7.5 6.602-7.5h164.878c4.011 0 7.111 3.521 6.602 7.5-2.699 27.073-4.138 67.864 5.247 115.536 11.067 56.214 31.221 91.701 40.626 113.117 21.704 49.423 33.097 130.785-20.712 268.347-1.942 4.549-6.411 7.5-11.357 7.5h-205.69c-4.946 0-9.415-2.951-11.357-7.5z" fill="#ffcebf"/></g><path d="m390.914 236.153c-9.405-21.417-29.559-56.903-40.626-113.117-9.385-47.671-7.947-88.462-5.247-115.536.509-3.979-2.591-7.5-6.602-7.5h-30c4.011 0 7.111 3.521 6.602 7.5-2.699 27.073-4.138 67.864 5.247 115.536 11.067 56.214 31.221 91.701 40.626 113.117 21.704 49.423 33.097 130.785-20.712 268.347-1.942 4.549-6.411 7.5-11.356 7.5h30c4.946 0 9.415-2.951 11.356-7.5 53.809-137.563 42.416-218.924 20.712-268.347z" fill="#ffb09e"/><g><g><g><path d="m258.443 233.191-4.886-4.886 16.912-42.549c6.241-15.701 26.514-19.885 38.461-7.938 11.947 11.947 7.763 32.22-7.938 38.461z" fill="#fea3ce"/><path d="m308.93 177.818c-9.009-9.009-22.75-8.841-31.641-1.483.561.467 1.112.953 1.641 1.483 11.947 11.947 7.763 32.22-7.938 38.461l-15.029 5.974-2.406 6.052 4.886 4.886 42.549-16.912c15.7-6.24 19.885-26.513 7.938-38.461z" fill="#fe7ab6"/><path d="m258.443 233.191-4.886-4.886-42.549 16.912c-15.701 6.241-19.885 26.514-7.938 38.461 11.947 11.947 32.22 7.763 38.461-7.938z" fill="#fea3ce"/></g></g><g><g><path d="m259.455 230.748h-6.91l-18.128-42.045c-6.689-15.515 4.687-32.809 21.583-32.809 16.896 0 28.272 17.294 21.583 32.809z" fill="#bee49d"/><path d="m256 155.894c-5.829 0-11 2.06-15 5.393 7.594 6.329 10.964 17.254 6.583 27.416l-6.583 15.268 11.545 26.777h6.91l18.128-42.045c6.689-15.515-4.688-32.809-21.583-32.809z" fill="#a3d8a4"/><path d="m259.455 230.748h-6.91l-18.128 42.045c-6.689 15.515 4.687 32.809 21.583 32.809 16.896 0 28.272-17.294 21.583-32.809z" fill="#bee49d"/><path d="m277.583 272.793-18.128-42.045h-6.91l-11.545 26.777 6.583 15.268c4.382 10.162 1.011 21.087-6.583 27.416 4 3.334 9.171 5.393 15 5.393 16.895 0 28.272-17.294 21.583-32.809z" fill="#a3d8a4"/></g></g><g><g><path d="m258.443 228.305-4.886 4.886-42.549-16.912c-15.701-6.241-19.885-26.514-7.938-38.461 11.947-11.947 32.22-7.763 38.461 7.938z" fill="#fea3ce"/><path d="m258.443 228.305-4.886 4.886 16.912 42.549c6.241 15.701 26.514 19.885 38.461 7.938 11.947-11.947 7.763-32.22-7.938-38.461z" fill="#fea3ce"/><path d="m300.992 245.217-42.549-16.912-4.886 4.886 2.406 6.052 15.029 5.973c15.701 6.241 19.885 26.514 7.938 38.461-.53.53-1.081 1.016-1.641 1.483 8.891 7.358 22.632 7.526 31.641-1.483 11.947-11.946 7.762-32.219-7.938-38.46z" fill="#fe7ab6"/></g></g><g><g><path d="m256 227.293v6.91l-42.045 18.128c-15.515 6.689-32.809-4.687-32.809-21.583 0-16.896 17.294-28.272 32.809-21.583z" fill="#bee49d"/><path d="m256 227.293v6.91l42.045 18.128c15.515 6.689 32.809-4.687 32.809-21.583 0-16.896-17.294-28.272-32.809-21.583z" fill="#bee49d"/><path d="m298.045 209.165-6.542 2.821c5.588 4.206 9.351 10.883 9.351 18.762 0 7.879-3.763 14.556-9.351 18.762l6.542 2.821c15.515 6.689 32.809-4.687 32.809-21.583 0-16.895-17.294-28.272-32.809-21.583z" fill="#a3d8a4"/></g></g><circle cx="256.5" cy="230.748" fill="#eaf6ff" r="33.5"/><path d="m256.5 197.248c-5.394 0-10.486 1.282-15 3.547 10.968 5.504 18.5 16.845 18.5 29.953s-7.532 24.449-18.5 29.953c4.514 2.265 9.606 3.547 15 3.547 18.501 0 33.5-14.999 33.5-33.5s-14.999-33.5-33.5-33.5z" fill="#d8ecfe"/></g><circle cx="256" cy="230.748" fill="#fea3ce" r="7.5"/><path d="m295.661 325.928c-3.474-2.25-8.121-1.255-10.37 2.224-4.322 6.681-9.367 12.916-14.995 18.532-4.473 4.463-9.335 8.558-14.499 12.212-5.974-3.874-11.456-8.433-16.34-13.591-4.818-5.089-9.04-10.751-12.55-16.83-2.07-3.587-6.657-4.815-10.245-2.745-3.587 2.07-4.816 6.657-2.745 10.245 4.096 7.094 9.023 13.703 14.647 19.643 5.936 6.27 12.631 11.77 19.936 16.407v132.475c0 4.143 3.357 7.5 7.5 7.5s7.5-3.357 7.5-7.5v-132.696c6.208-4.308 12.047-9.17 17.392-14.504 6.379-6.365 12.096-13.432 16.993-21.003 2.25-3.477 1.255-8.12-2.224-10.369z" fill="#ffb09e"/></g></svg>