<?xml version="1.0" encoding="iso-8859-1"?>
<!-- Generator: Adobe Illustrator 19.0.0, SVG Export Plug-In . SVG Version: 6.00 Build 0)  -->
<svg version="1.1" id="Layer_1" xmlns="http://www.w3.org/2000/svg" xmlns:xlink="http://www.w3.org/1999/xlink" x="0px" y="0px"
	 viewBox="0 0 199.424 199.424" style="enable-background:new 0 0 199.424 199.424;" xml:space="preserve">
<g>
	<path style="fill:#C9EBF2;" d="M99.714,0c10.976,0,19.93,8.951,19.93,19.929c0,10.981-8.954,19.934-19.93,19.934
		c-10.979,0-19.933-8.953-19.933-19.934C79.781,8.951,88.735,0,99.714,0L99.714,0z M71.635,80.732l-14.72,24.833
		c-2.508,4.347-8.116,5.853-12.463,3.341l0,0c-4.349-2.511-5.851-8.119-3.343-12.465l26.314-45.72
		c3.633-6.294,6.881-5.872,14.345-5.872h5.548l4.082,6.775l4.085,6.775c0.903,1.5,2.355,2.906,4.23,2.894
		c1.779-0.011,3.065-0.963,4.227-2.894l4.085-6.775l4.082-6.775h5.547c7.467,0,10.712-0.422,14.348,5.872l26.312,45.72
		c2.508,4.346,1.006,9.954-3.34,12.465l0,0c-4.346,2.512-9.957,1.006-12.465-3.341l-14.72-24.833l0.026,107.652
		c-0.003,6.07-4.969,11.04-11.04,11.04l0,0c-6.073,0-11.04-4.967-11.04-11.04V125.96H93.691v62.424c0,6.073-4.967,11.04-11.04,11.04
		l0,0c-6.073,0-11.039-4.97-11.039-11.04L71.635,80.732L71.635,80.732z"/>
	<circle style="fill:#FF7F66;" cx="84.283" cy="77.248" r="2.543"/>
	<circle style="fill:#FF7F66;" cx="105.077" cy="65.429" r="2.543"/>
	<circle style="fill:#FF7F66;" cx="122.73" cy="79.792" r="2.543"/>
	<circle style="fill:#FF7F66;" cx="107.621" cy="92.059" r="2.543"/>
	<circle style="fill:#FF7F66;" cx="111.211" cy="77.248" r="2.543"/>
	<circle style="fill:#FF7F66;" cx="86.826" cy="89.516" r="2.543"/>
	<circle style="fill:#FF7F66;" cx="95.802" cy="102.256" r="2.543"/>
	<circle style="fill:#FF7F66;" cx="122.73" cy="115.695" r="2.543"/>
	<circle style="fill:#FF7F66;" cx="81.74" cy="124.372" r="2.543"/>
	<circle style="fill:#FF7F66;" cx="86.826" cy="142.923" r="2.543"/>
	<circle style="fill:#FF7F66;" cx="50.024" cy="94.602" r="2.543"/>
	<circle style="fill:#FF7F66;" cx="76.653" cy="58.399" r="2.543"/>
	<circle style="fill:#FF7F66;" cx="129.452" cy="58.399" r="2.543"/>
	<circle style="fill:#FF7F66;" cx="151.524" cy="92.059" r="2.543"/>
	<circle style="fill:#FF7F66;" cx="110.164" cy="29.89" r="2.543"/>
	<circle style="fill:#FF7F66;" cx="86.826" cy="20.016" r="2.543"/>
	<circle style="fill:#FF7F66;" cx="76.653" cy="156.088" r="2.543"/>
	<circle style="fill:#FF7F66;" cx="113.755" cy="179.098" r="2.543"/>
</g>
<g>
</g>
<g>
</g>
<g>
</g>
<g>
</g>
<g>
</g>
<g>
</g>
<g>
</g>
<g>
</g>
<g>
</g>
<g>
</g>
<g>
</g>
<g>
</g>
<g>
</g>
<g>
</g>
<g>
</g>
</svg>
