<?xml version="1.0" encoding="iso-8859-1"?>
<!-- Generator: Adobe Illustrator 19.0.0, SVG Export Plug-In . SVG Version: 6.00 Build 0)  -->
<svg version="1.1" id="Layer_1" xmlns="http://www.w3.org/2000/svg" xmlns:xlink="http://www.w3.org/1999/xlink" x="0px" y="0px"
	 viewBox="0 0 112.806 112.806" style="enable-background:new 0 0 112.806 112.806;" xml:space="preserve">
<g>
	<g>
		<path style="fill:#FCCAAE;" d="M40.642,88.761c0-3.261,2.171-6.005,5.144-6.886c-0.289-1.13-0.472-2.303-0.54-3.507h-4.921
			c-3.962,0-7.185-3.217-7.185-7.182c0-3.961,3.222-7.181,7.185-7.181h4.868v-3.458h-11.41c-3.964,0-7.177-3.217-7.177-7.18
			c0-3.966,3.213-7.181,7.177-7.181h11.449c0.048-1.188,0.204-2.343,0.464-3.46h-34.11c-3.961,0-7.181-3.216-7.181-7.184
			c0-3.963,3.22-7.178,7.181-7.178h51.448c0.269-0.011,0.537-0.041,0.808-0.041h17.894l-3.309-3.311H64.083
			c-5.854,0-10.604-4.745-10.604-10.603V10.88c0-0.149,0.019-0.291,0.03-0.443h13.28c-0.004-0.023-0.012-0.045-0.014-0.069H84.4
			l23.268,23.779c3.174,3.345,5.138,7.854,5.138,12.831v30.307c0,10.3-8.354,18.651-18.656,18.651H81.688H63.841H47.824
			C43.861,95.936,40.642,92.725,40.642,88.761z"/>
	</g>
	<g>
		<path style="fill:#E74C3C;" d="M17.783,40.427c-0.384,0-0.768-0.146-1.061-0.439l-6.037-6.036c-0.586-0.585-0.586-1.535,0-2.121
			c0.585-0.586,1.535-0.586,2.121,0l6.037,6.036c0.586,0.585,0.586,1.535,0,2.121C18.551,40.281,18.167,40.427,17.783,40.427z"/>
	</g>
	<g>
		<g>
			<path style="fill:#E74C3C;" d="M28.176,88.35c0,7.781-6.308,14.088-14.088,14.088C6.308,102.438,0,96.131,0,88.35
				c0-7.78,14.088-27.423,14.088-27.423S28.176,80.57,28.176,88.35z"/>
		</g>
		<g>
			<path style="fill:#D6EFFF;" d="M13.036,97.313c-0.276,0-0.5-0.224-0.5-0.5s0.224-0.5,0.5-0.5c4.959,0,8.994-4.035,8.994-8.994
				c0-0.276,0.224-0.5,0.5-0.5s0.5,0.224,0.5,0.5C23.03,92.83,18.547,97.313,13.036,97.313z"/>
		</g>
	</g>
	<g>
		<circle style="fill:#E74C3C;" cx="14.054" cy="52.162" r="3.729"/>
	</g>
	<g>
		<g>
			<path style="fill:#C9EBF2;" d="M14.054,24.21c-0.552,0-1-0.448-1-1V13.172c0-0.552,0.448-1,1-1s1,0.448,1,1V23.21
				C15.054,23.762,14.606,24.21,14.054,24.21z"/>
		</g>
		<g>
			<path style="fill:#C9EBF2;" d="M17.833,24.21c-0.256,0-0.512-0.098-0.707-0.293c-0.391-0.391-0.391-1.024,0-1.414l7.099-7.099
				c0.391-0.391,1.023-0.391,1.414,0c0.391,0.391,0.391,1.023,0,1.414l-7.099,7.099C18.345,24.112,18.089,24.21,17.833,24.21z"/>
		</g>
		<g>
			<path style="fill:#C9EBF2;" d="M10.275,24.21c-0.256,0-0.512-0.098-0.707-0.293l-7.099-7.099c-0.391-0.391-0.391-1.023,0-1.414
				s1.023-0.391,1.414,0l7.099,7.099c0.391,0.391,0.391,1.023,0,1.414C10.787,24.112,10.531,24.21,10.275,24.21z"/>
		</g>
	</g>
</g>
<g>
</g>
<g>
</g>
<g>
</g>
<g>
</g>
<g>
</g>
<g>
</g>
<g>
</g>
<g>
</g>
<g>
</g>
<g>
</g>
<g>
</g>
<g>
</g>
<g>
</g>
<g>
</g>
<g>
</g>
</svg>
